<ttFont>
          <CharString index="0">
            rmoveto
            9.020004272460938 47 0 55 72.99000549316406 vvcurveto
            -7 260.02000427246094 -161.02000427246094 -83 callgsubr
            -240.99000549316406 -87 callsubr
            rrcurveto
            -328 -3.9900054931640625 -182.99000549316406 -244.02000427246094 -343 vvcurveto
            -365 176.99000549316406 -215.97999572753906 320 141 169 42.97999572753906 62 75 vhcurveto
            -57 callsubr
            172 callsubr
            -60 -147 -36.99000549316406 -103 hhcurveto
            -211 -154.99000549316406 110 292.97999572753906 -10.020004272460938 hvcurveto
            40 747 vlineto
            -409.99000549316406 484 rmoveto
            207 -33 callsubr
            -163 -209 -12 hvcurveto
            -593 hlineto
            263 30 132.02000427246094 109 169 hhcurveto
            endchar
          </CharString>
          <CharString index="1">
            rmoveto
            -322.00999450683594 -4 139 -284.9700012207031 362 hhcurveto
            294.02000427246094 216.99000549316406 206.99000549316406 362.99000549316406 5 hvcurveto
            323.00999450683594 4.0200042724609375 -143.02000427246094 279 -356 hhcurveto
            -290 -7 callgsubr
            -201 -363.99000549316406 -5.0200042724609375 hvcurveto
            844 -30 29 callsubr
            -125.00999450683594 -176 -217 3 -232 2.9900054931640625 -100 223 1 259.99000549316406 1 285 129 164 215 -87 callsubr
            227 -2 103 -210 -1 -262 rrcurveto
            endchar
          </CharString>
          <CharString index="2">
            rmoveto
            -80 callgsubr
            -126.02000427246094 160 callsubr
            66 150 -38.99000549316406 146 hhcurveto
            243 155.02000427246094 112.97999572753906 199.99000549316406 197.02000427246094 -197 89.99000549316406 -150.02000427246094 59 hvcurveto
            -147.99000549316406 57 -103 57 -60 callgsubr
            -45 callsubr
            rrcurveto
            89.99000549316406 1 85 65 163 hhcurveto
            112 108.00999450683594 -57 callsubr
            -30 39 hvcurveto
            28 127 -40 23 -120 37 -133.02000427246094 -1 rlinecurve
            -214 -1 -180 -91 -4 -196.02000427246094 -2 -186 150 -98 175 -71 rrcurveto
            136 -54.99000549316406 136 -53 -120 vvcurveto
            -118 -104.02000427246094 -59 -145.99000549316406 vhcurveto
            -138.02000427246094 2 -146.97999572753906 52 -43 30 rrcurveto
            return
          </CharString>
          <CharString index="3">
            rmoveto
            -428.00999450683594 -1 172.02000427246094 -231.97000122070312 402 hhcurveto
            373.99000549316406 186 221.97999572753906 439.00999450683594 hvcurveto
            877 -168 -837 vlineto
            -437 -146 -131 -240.99000549316406 -257 -153 125.00999450683594 442 vhcurveto
            1 839 rlineto
            -169 -879 hlineto
            endchar
          </CharString>
          <CharString index="4">
            rmoveto
            -37 55 176.99000549316406 -52.97999572753906 200 hhcurveto
            293.99000549316406 206 132.97000122070312 268 45 callsubr
            hvcurveto
            -216 104.02000427246094 -121 70.99000549316406 171 vvcurveto
            152 -1 167 69 162 hhcurveto
            157 95.00999450683594 -34 -48 74 hvcurveto
            35 133 rlineto
            36 -54 -114 46 -192 hhcurveto
            -231 -260.00999450683594 -12 callsubr
            -280 -225 200 -140.99000549316406 198 -90.00999450683594 hvcurveto
            213 -97 151 -69 -174 vvcurveto
            -168.02000427246094 -133.97999572753906 -40 callgsubr
            rlineto
            endchar
          </CharString>
          <CharString index="5">
            -46 callsubr
            82.99000549316406 -1 -1 20 hvcurveto
            -77 callsubr
            -69 callgsubr
            135 -11.020004272460938 86.02000427246094 34 callsubr
            474.99000549316406 -7 269 328.99000549316406 499 vvcurveto
            460 0.9900054931640625 -238 271.02000427246094 -483 return
          </CharString>
          <CharString index="6">
            rmoveto
            -380.99000549316406 -315 -280 -503.99000549316406 -461 270.00999450683594 -308.97999572753906 418 216 -47 callgsubr
            14 callsubr
            30 92 hvcurveto
            30 callgsubr
            rlineto
            -35 -54 -151 -55 -189.99000549316406 hhcurveto
            -334.00999450683594 -193 277.00999450683594 371 406 221 228 316.00999450683594 229 88.99000549316406 -55 -14.990005493164062 46 hvcurveto
            24 150 rlineto
            14.009994506835938 -61.99000549316406 -104 -85 callsubr
            -231.02000427246094 hhcurveto
            endchar
          </CharString>
          <CharString index="7">
            12 -310.99000549316406 -33 callgsubr
            246.99000549316406 -701.0099945068359 1060 rlineto
            -157 -80 callsubr
            156 969.9900054931641 hlineto
            -11 328.99000549316406 156.02000427246094 -264.99000549316406 686.9900054931641 -1033.990005493164 rlineto
            155 -73 callsubr
            -155 return
          </CharString>
          <CharString index="8">
            165 callgsubr
            -11 callsubr
            878 vlineto
            86 69 139 69 60 callsubr
            2 rrcurveto
            195 7.9900054931640625 48 -94 -226 vvcurveto
            -705.9900054931641 167 704.9799957275391 vlineto
            335.00999450683594 -93 121 -248 -4 vhcurveto
            -166 -3 -171.99000549316406 -100 -81 -81 callgsubr
            -1 146 rcurveline
            207 callgsubr
            return
          </CharString>
          <CharString index="9">
            rmoveto
            -221 -788.0099945068359 -69 callsubr
            -179 -42 184 -223 783.0099945068359 rlineto
            -165 hlineto
            -221 -783.0099945068359 -40 -179 -69 callsubr
            179 -229 783.0099945068359 rlineto
            -167 hlineto
            359 -1158 rlineto
            158 hlineto
            232 837 33 146.99000549316406 29 -146.99000549316406 237.02000427246094 -837 rlineto
            68 callgsubr
            355 1158 rlineto
            -163 hlineto
            endchar
          </CharString>
          <CharString index="10">
            rmoveto
            -36 callsubr
            47 -1 55 72.99000549316406 vvcurveto
            -6 260.02000427246094 -161.02000427246094 -83 callgsubr
            -240.99000549316406 -87 callsubr
            -170 -2 -131.99000549316406 -26 callgsubr
            -87 -112 rrcurveto
            hintmask 10110111
            144 -49 59 callsubr
            38 -167.02000427246094 hhcurveto
            -182.99000549316406 -202 68 callsubr
            -41 hvcurveto
            41.99000549316406 -112 rlineto
            43 65 163 56 115 hhcurveto
            152 100 -27 -202 hvcurveto
            -53 callsubr
            vlineto
            -130.99000549316406 -179.02000427246094 -14.990005493164062 -52 -133 hvcurveto
            163 callsubr
            -59 -92 -105 -150 vvcurveto
            -198 149 -118.97999572753906 201.99000549316406 186 147 86.97000122070312 118 -14 callgsubr
            vhcurveto
            -135 81.99000549316406 139.02000427246094 -69.97999572753906 186.99000549316406 hhcurveto
            142 170 42.97999572753906 62 76 hvcurveto
            -33.02000427246094 172 callsubr
            75 callgsubr
            -151 -36 -102.00999450683594 hhcurveto
            -211 -152.99000549316406 104.02000427246094 297.97999572753906 -10.009994506835938 hvcurveto
            hintmask 11001111
            40 747 vlineto
            -410.99000549316406 484 rmoveto
            206.99000549316406 67.00999450683594 -163 -209 -12 hvcurveto
            -592.0200042724609 hlineto
            263 30 132.02000427246094 109 168 hhcurveto
            -799.0099945068359 -927.9900054931641 rmoveto
            -163 -61.99000549316406 88 117 hvcurveto
            hintmask 10101111
            98 52 -10 callgsubr
            118.00999450683594 44 vhcurveto
            37.99000549316406 88.99000549316406 148 15.020004272460938 116 hhcurveto
            -10.020004272460938 vlineto
            -109 99 callsubr
            -94 29 -78.99000549316406 vhcurveto
            hintmask 11001111
            -77 -51 -142 -97 -149 hhcurveto
            endchar
          </CharString>
          <CharString index="11">
            -15.990005493164062 return
          </CharString>
          <CharString index="12">
            -44 callsubr
            hintmask 1110110101000000
            -90 callgsubr
            hintmask 1111010011000000
            -72 callsubr
            hintmask 1111011000100000
            -97 callgsubr
            hintmask 1111010011000000
            -96 callgsubr
            hintmask 1111010101000000
            74 callgsubr
            hintmask 1110110101000000
            -63 callsubr
            vhcurveto
            167 1 103 -88.99000549316406 -182 vvcurveto
            hintmask 1111010101000000
            -70 callgsubr
            hintmask 1111011000100000
            -92 callsubr
            hintmask 1111010101000000
            11 callsubr
          </CharString>
          <CharString index="13">
            231 callgsubr
            134 callgsubr
            64 58.99000549316406 -32 callsubr
            -61.99000549316406 -39 callsubr
            return
          </CharString>
          <CharString index="14">
            -39 callgsubr
            931 133 -762 588 503.00999450683594 -66 callsubr
            -503.00999450683594 539 689.0099945068359 131 -858.0099945068359 vlineto
            endchar
          </CharString>
          <CharString index="15">
            225 75.02000427246094 -55 -130.99000549316406 -147 -188 -69 -196 -217 -104 68 160 89.99000549316406 47.99000549316406 57.02000427246094 44 36.97999572753906 hvcurveto
            return
          </CharString>
          <CharString index="16">
            rmoveto
            81 224 -12 callsubr
            28 -78.00999450683594 -217 -60 17.020004272460938 -64 9 -69 -1 rlinecurve
            -385 -87 callsubr
            -303.97999572753906 -260.02000427246094 -10.020004272460938 -506 1 callgsubr
            -334.99000549316406 -6 callgsubr
            -269 236.02000427246094 -117 -77 -214.97000122070312 rcurveline
            -47 callgsubr
            -27.020004272460938 52 callsubr
            205 65 -19 70 -10 75.97999572753906 2 rlinecurve
            385 7.9900054931640625 286 267 10 505 7 343 -138 259.02000427246094 -234 179 callsubr
            rrcurveto
            -814 -720 rmoveto
            2 433 228.99000549316406 215 291 2.9900054931640625 rrcurveto
            100 callgsubr
            51 -7.9900054931640625 -16.020004272460938 46 hvcurveto
            -430 -1197 -163 110 -83 218 1 242 rlinecurve
            1008 14 rmoveto
            -3 -426 -202 -229.99000549316406 -299.99000549316406 -2 rrcurveto
            91 callgsubr
            101 callsubr
            10 19 -51 hvcurveto
            431 1198 161 -106 83 -216 -1 -246.99000549316406 rlinecurve
            endchar
          </CharString>
          <CharString index="17">
            1387.990005493164 19 callsubr
            hintmask 00000000
            hintmask 11000000
            -79 callsubr
            hintmask 10100000
            90 callgsubr
            -362.99000549316406 -87 callgsubr
            endchar
          </CharString>
          <CharString index="18">
            rmoveto
            36 -65.99000549316406 rlineto
            1036 133 -849 hlineto
            86 105.99000549316406 805 1219.009994506836 -36 64 rlineto
            -995 -135 810 hlineto
            -85.00999450683594 -112 -808 -1209 rlineto
            return
          </CharString>
          <CharString index="19">
            -68.02000427246094 88 57.02000427246094 215 204.99000549316406 return
          </CharString>
          <CharString index="20">
            -2.9900054931640625 return
          </CharString>
          <CharString index="21">
            -77 -516.9900054931641 115 401.99000549316406 60 callgsubr
            247.989990234375 112 511 134 -95 114.00999450683594 return
          </CharString>
          <CharString index="22">
            43.99000549316406 return
          </CharString>
          <CharString index="23">
            271.99000549316406 1013.9900054931641 rmoveto
            -102 callgsubr
            801 hmoveto
            -1013.9900054931641 167 1013.9900054931641 303 -45 callgsubr
            -303 128 vlineto
            185 82 -10 callsubr
            175 callsubr
            102 callgsubr
            242 callgsubr
            35.99000549316406 25 callgsubr
            -81 callgsubr
            hhcurveto
            -182 -210 -111.99000549316406 -338 hvcurveto
            -92 vlineto
            -196 -34.02000427246094 rlineto
            -92 196 vlineto
            return
          </CharString>
          <CharString index="24">
            -71.99000549316406 return
          </CharString>
          <CharString index="25">
            166.99000549316406 return
          </CharString>
          <CharString index="26">
            58 -96 callsubr
            -66 callsubr
            -128 134 hstemhm
            215.97999572753906 166 551 256 callsubr
            hintmask 01110000
            1229.990005493164 162.97999572753906 rmoveto
            -34.970001220703125 -41 -33 -7 -16 hhcurveto
            -27.009994506835938 -13.990005493164062 18.990005493164062 88 hvcurveto
            912.0200042724609 -166 vlineto
            hintmask 10110000
            -905.0099945068359 vlineto
            -54 callsubr
            -48 133 callsubr
            -82 -116 hhcurveto
            -173.02000427246094 1 109 callgsubr
            82.99000549316406 185.02000427246094 vvcurveto
            756 -166 -1510.990005493164 156.02000427246094 vlineto
            -24 483.97999572753906 rlineto
            122 callgsubr
            64 -77 callsubr
            191 callsubr
            117 hhcurveto
            162 111 -77 callsubr
            52 51 hvcurveto
            hintmask 01110000
            -110 -4 43 -41 69 hhcurveto
            91 83 71 29 17 hvcurveto
            -24 75.97999572753906 rlineto
            endchar
          </CharString>
          <CharString index="27">
            -1521.990005493164 return
          </CharString>
          <CharString index="28">
            3 callgsubr
            1501.979995727539 -94 callsubr
            return
          </CharString>
          <CharString index="29">
            205.99000549316406 return
          </CharString>
          <CharString index="30">
            101.99000549316406 return
          </CharString>
          <CharString index="31">
            241 callgsubr
            148 hlineto
            15 callgsubr
            270.99000549316406 -92 44 -248 -202 return
          </CharString>
          <CharString index="32">
            -173 97 callsubr
            442.97999572753906 112 372 119 return
          </CharString>
          <CharString index="33">
            -21 callgsubr
            931.9900054931641 121 return
          </CharString>
          <CharString index="34">
            1521.990005493164 return
          </CharString>
          <CharString index="35">
            -80 -58 -55 -88 -1 -77 -1 -65 15.009994506835938 -65.99000549316406 71.99000549316406 -40 rrcurveto
            return
          </CharString>
          <CharString index="36">
            1659.990005493164 235 callgsubr
            -71 123.99000549316406 -42 callsubr
            return
          </CharString>
          <CharString index="37">
            -61 callgsubr
            588 -66 callsubr
            538.9999847412109 131 return
          </CharString>
          <CharString index="38">
            -42.99000549316406 return
          </CharString>
          <CharString index="39">
            -78 callsubr
            169 return
          </CharString>
          <CharString index="40">
            -61 callsubr
            59 callsubr
            44 callsubr
            return
          </CharString>
          <CharString index="41">
            130.99000549316406 return
          </CharString>
          <CharString index="42">
            hstem
            -68 callsubr
            return
          </CharString>
          <CharString index="43">
            97 134 vvcurveto
            108.00999450683594 -46 77.99000549316406 return
          </CharString>
          <CharString index="44">
            212.99000549316406 -6 callgsubr
            62.02000427246094 148 0.9900054931640625 return
          </CharString>
          <CharString index="45">
            hstem
            110.97999572753906 171 1008.010009765625 -83 callgsubr
            vstem
            return
          </CharString>
          <CharString index="46">
            -29 callgsubr
            -49 22.020004272460938 vhcurveto
            return
          </CharString>
          <CharString index="47">
            125.99000549316406 return
          </CharString>
          <CharString index="48">
            -74 callgsubr
            77 62 -33.02000427246094 46.99000549316406 -71.99000549316406 232 callsubr
            return
          </CharString>
          <CharString index="49">
            vstem
            1210 110.97999572753906 rmoveto
            1 callsubr
            210 -279 396 -101 159 541 646 rcurveline
            -200.99000549316406 hlineto
            -675 -821 rlineto
            821 -169 243 callgsubr
            488 vlineto
            230 15 callgsubr
            115 -179 197 -279 -77 callsubr
            -182 rlinecurve
            35 -61.99000549316406 11 -80 callgsubr
            16.020004272460938 -24.990005493164062 rrcurveto
            195.99000549316406 hlineto
            -6 9.990005493164062 -54 89.99000549316406 1 callgsubr
            11 rrcurveto
            return
          </CharString>
          <CharString index="50">
            -31.990005493164062 return
          </CharString>
          <CharString index="51">
            -55 callsubr
            193 callgsubr
            -126.00999450683594 -42 callgsubr
            2 callsubr
            rlinecurve
            return
          </CharString>
          <CharString index="52">
            1382.990005493164 rmoveto
            86 -88 callsubr
            68 101 rlinecurve
            -120 103 149 callsubr
            -33 callgsubr
            return
          </CharString>
          <CharString index="53">
            -37.99000549316406 return
          </CharString>
          <CharString index="54">
            -119.00999450683594 return
          </CharString>
          <CharString index="55">
            120 callsubr
            82.99000549316406 -64 callsubr
            90 callsubr
            22.020004272460938 vhcurveto
            return
          </CharString>
          <CharString index="56">
            291 346.00999450683594 -103 -85 callsubr
            -263 -263 214 callsubr
            return
          </CharString>
          <CharString index="57">
            167.99000549316406 return
          </CharString>
          <CharString index="58">
            -126.00999450683594 -42 callgsubr
            39 callgsubr
            return
          </CharString>
          <CharString index="59">
            33 callsubr
            -33 46.99000549316406 -72 66 callgsubr
            vhcurveto
            return
          </CharString>
          <CharString index="60">
            -85 callsubr
            -291 346.00999450683594 rlineto
            return
          </CharString>
          <CharString index="61">
            vlineto
            8.009994506835938 return
          </CharString>
          <CharString index="62">
            120.00999450683594 return
          </CharString>
          <CharString index="63">
            rmoveto
            -107 hlineto
            -82 -88.99000549316406 -24 -24.990005493164062 -48 hvcurveto
            return
          </CharString>
          <CharString index="64">
            142.99000549316406 return
          </CharString>
          <CharString index="65">
            -51 callgsubr
            -45 -36 rlinecurve
            return
          </CharString>
          <CharString index="66">
            134 hstem
            626.9900054931641 -6 callgsubr
            vstem
            627 538.9900054931641 rmoveto
            -251 -6 callgsubr
            251 vlineto
            -6 132 callsubr
            149 -5 rlineto
            255 134 -255 hlineto
            -149 -7.9900054931640625 6 -83 callgsubr
            rlineto
            244 208 callsubr
            -244 vlineto
            5 -170.99000549316406 -163 7.9900054931640625 rlineto
            -237 -134 237 hlineto
            163 5 -5 -171.99000549316406 rlineto
            return
          </CharString>
          <CharString index="67">
            173 -96 callsubr
            132.97999572753906 return
          </CharString>
          <CharString index="68">
            -82 callgsubr
            vhcurveto
            return
          </CharString>
          <CharString index="69">
            -611 -645 rmoveto
            -178 -93.99000549316406 118 156 return
          </CharString>
          <CharString index="70">
            83 callsubr
            vstem
            103 callgsubr
            1009.9900054931641 235 callgsubr
            -47 rlineto
            76 55 -53 callgsubr
            -11 callgsubr
            252 vvcurveto
            158 75 callgsubr
            -32 callgsubr
            -96.00999450683594 41 vhcurveto
            8 callgsubr
            -88 rlineto
            -47 vlineto
            58 -29 -74 callgsubr
            8 callsubr
            -104.02000427246094 105 callgsubr
            -25 vlineto
            return
          </CharString>
          <CharString index="71">
            9.009994506835938 return
          </CharString>
          <CharString index="72">
            -8 callgsubr
            -41 callgsubr
            return
          </CharString>
          <CharString index="73">
            225 callgsubr
            rlinecurve
            24 133 -5 162.02000427246094 176.99000549316406 vvcurveto
            985 -172 -968.0099945068359 vlineto
            -210 return
          </CharString>
          <CharString index="74">
            66.99000549316406 return
          </CharString>
          <CharString index="75">
            -66 callgsubr
            -18 callgsubr
            return
          </CharString>
          <CharString index="76">
            vstem
            205.99000549316406 1521.990005493164 64 callgsubr
            return
          </CharString>
          <CharString index="77">
            -96 callsubr
            134.97999572753906 1285.990005493164 -61 callgsubr
            return
          </CharString>
          <CharString index="78">
            -185 -195 68 callsubr
            -39 return
          </CharString>
          <CharString index="79">
            165.99000549316406 return
          </CharString>
          <CharString index="80">
            123 99 callsubr
            -154 166 hhcurveto
            -57 callgsubr
            117 79.99000549316406 96.02000427246094 43 hvcurveto
            return
          </CharString>
          <CharString index="81">
            276 38 callgsubr
            hstem
            -35 callgsubr
            1465.990005493164 vstem
            -35 callgsubr
            150 callgsubr
            rmoveto
            13 -6 callsubr
            rlineto
            1438 hlineto
            99 callsubr
            24.990005493164062 -749 1483 rlineto
            -29 hlineto
            -688 -1486.990005493164 rlineto
            1239 112 rmoveto
            -1023 hlineto
            493 1086 530 -1086 rlineto
            endchar
          </CharString>
          <CharString index="82">
            rmoveto
            -1390.979995727539 171 122 callsubr
            498 131 -1159.990005493164 -131 490.99000549316406 vlineto
            return
          </CharString>
          <CharString index="83">
            -65 -25.990005493164062 -23 callsubr
            return
          </CharString>
          <CharString index="84">
            -23 vhcurveto
            -19.990005493164062 vlineto
            return
          </CharString>
          <CharString index="85">
            83 callsubr
            vstem
            100.99000549316406 1306.990005493164 rmoveto
            -159 74 -144 99 callgsubr
            -41 vhcurveto
            86 105 callsubr
            47 vlineto
            -65.99000549316406 28.020004272460938 -56 104 100 vvcurveto
            144 68 177 callsubr
            57.02000427246094 46 vhcurveto
            25 vlineto
            -72.00999450683594 47 rlineto
            -82 -55 -128 -156 -219 vvcurveto
            return
          </CharString>
          <CharString index="86">
            rmoveto
            52.97999572753906 -89 148 callsubr
            44 -34 callsubr
            2 53 callgsubr
            -36 -53 callsubr
            vhcurveto
            -44 75 callsubr
            -130 -90.99000549316406 -123.97999572753906 -34 rrcurveto
            endchar
          </CharString>
          <CharString index="87">
            348 1408 rmoveto
            174 callgsubr
            74 62 -29 43 -70 -59 -59 -49 -70 65 callsubr
            100 callgsubr
            205 callgsubr
            157 callgsubr
            -30 43 -69 -59 -58 86 callgsubr
            -35 callgsubr
            hvcurveto
            return
          </CharString>
          <CharString index="88">
            hstemhm
            3 callgsubr
            52 callgsubr
            -197.00001525878906 166 return
          </CharString>
          <CharString index="89">
            187 161 callgsubr
            37 -100.99000549316406 -227 vvcurveto
            -697 167 707.9900054931641 vlineto
            71.99000549316406 -4 62 -8 53 vhcurveto
            100 callsubr
            59 129 209 callgsubr
            53 callsubr
            2 rrcurveto
            199.99000549316406 6 31 -116 -212 vvcurveto
            -694.9900054931641 166.02000427246094 703 vlineto
            return
          </CharString>
          <CharString index="90">
            209 callsubr
            rmoveto
            -51 callsubr
            -97 -46 callgsubr
            return
          </CharString>
          <CharString index="91">
            117 callsubr
            94 -99 181.99000549316406 -129 111 -56 rlinecurve
            return
          </CharString>
          <CharString index="92">
            244 48 callgsubr
            return
          </CharString>
          <CharString index="93">
            rmoveto
            -124 vlineto
            50 callsubr
            15.020004272460938 81.97999572753906 -5 36 hhcurveto
            -9 callsubr
            -166.02000427246094 130 callsubr
            -38.99000549316406 101 callsubr
            10 -36 callsubr
            -21.020004272460938 vhcurveto
            endchar
          </CharString>
          <CharString index="94">
            -28 callgsubr
            hstem
            40 callsubr
            547.989990234375 167 vstem
            return
          </CharString>
          <CharString index="95">
            -95.99000549316406 return
          </CharString>
          <CharString index="96">
            167.02000427246094 return
          </CharString>
          <CharString index="97">
            94.99000549316406 return
          </CharString>
          <CharString index="98">
            227 112 158 371.99000549316406 hvcurveto
            1116 return
          </CharString>
          <CharString index="99">
            220.99000549316406 -83 callgsubr
            return
          </CharString>
          <CharString index="100">
            123.99000549316406 return
          </CharString>
          <CharString index="101">
            -20.990005493164062 return
          </CharString>
          <CharString index="102">
            -46 callgsubr
            149 hlineto
            return
          </CharString>
          <CharString index="103">
            64 57 -74 callgsubr
            77 62 return
          </CharString>
          <CharString index="104">
            92 callsubr
            931.9799957275391 107 callsubr
            76 callgsubr
            -1 255 callsubr
            -72 hhcurveto
            -64 -59 -61.99000549316406 -79.02000427246094 1 hvcurveto
            return
          </CharString>
          <CharString index="105">
            73 callgsubr
            189 callgsubr
            -27 -24 callsubr
            endchar
          </CharString>
          <CharString index="106">
            39 callgsubr
            86 -88 callsubr
            return
          </CharString>
          <CharString index="107">
            -347.02000427246094 return
          </CharString>
          <CharString index="108">
            -120.00999450683594 return
          </CharString>
          <CharString index="109">
            -129.99000549316406 return
          </CharString>
          <CharString index="110">
            -3 callgsubr
            -35 callgsubr
            -61 callsubr
            return
          </CharString>
          <CharString index="111">
            -289 97 callsubr
            916.9900054931641 129 return
          </CharString>
          <CharString index="112">
            -95 callgsubr
            endchar
          </CharString>
          <CharString index="113">
            43 callgsubr
            -262.97999572753906 -263 return
          </CharString>
          <CharString index="114">
            -67.00999450683594 return
          </CharString>
          <CharString index="115">
            -106.99000549316406 return
          </CharString>
          <CharString index="116">
            1797.979995727539 rmoveto
            -54 callgsubr
            57 65 -59 callgsubr
            216 callgsubr
            -71 -62 -16 callgsubr
            return
          </CharString>
          <CharString index="117">
            135 2 71 -122 -174 vvcurveto
            481 -634 rmoveto
            -215 128 -186 217.99000549316406 5 vhcurveto
            195 5 179 140 259.99000549316406 vvcurveto
            223 -104 92 callsubr
            -241 1 callgsubr
            vhcurveto
            -196 -6 -179 -142 -261 vvcurveto
            return
          </CharString>
          <CharString index="118">
            -7 42 52 -87 callsubr
            65 hhcurveto
            endchar
          </CharString>
          <CharString index="119">
            -82 callsubr
            vstem
            return
          </CharString>
          <CharString index="120">
            108 callgsubr
            -74 callgsubr
            -42 58 return
          </CharString>
          <CharString index="121">
            49.99000549316406 return
          </CharString>
          <CharString index="122">
            148.99000549316406 return
          </CharString>
          <CharString index="123">
            -35 callsubr
            -62 -82 callgsubr
            return
          </CharString>
          <CharString index="124">
            12 callgsubr
            407.99000549316406 134 return
          </CharString>
          <CharString index="125">
            38 callgsubr
            hstem
            -78 callsubr
            172 return
          </CharString>
          <CharString index="126">
            241.99000549316406 -19 callsubr
            return
          </CharString>
          <CharString index="127">
            444.99000549316406 447 rlineto
            -198 hlineto
            -537 -554 4.0200042724609375 123 rlineto
            953 -166 -1660.990005493164 166 223.99000549316406 vlineto
            192 callgsubr
            178 180 179.02000427246094 413 -581 rlineto
            return
          </CharString>
          <CharString index="128">
            121 callgsubr
            104 47 callsubr
            return
          </CharString>
          <CharString index="129">
            76 callgsubr
            -117 133 -53 callsubr
            134 -100.99000549316406 -66 callsubr
            rlinecurve
            134 callsubr
            -103 80.02000427246094 235 callsubr
            -10 callsubr
            111 callgsubr
            rlinecurve
            return
          </CharString>
          <CharString index="130">
            113 callgsubr
            3 callgsubr
            52 callgsubr
            -197.00001525878906 166 483.010009765625 -82 callsubr
            return
          </CharString>
          <CharString index="131">
            vstem
            187.99000549316406 221 callgsubr
            224 callgsubr
            61 157 118 104.99000549316406 105 rlinecurve
            -110.99000549316406 -77 callsubr
            -40.02000427246094 221 callsubr
            return
          </CharString>
          <CharString index="132">
            1873 rmoveto
            56 callgsubr
            return
          </CharString>
          <CharString index="133">
            92 callgsubr
            -15 callsubr
            return
          </CharString>
          <CharString index="134">
            17 callsubr
            hstem
            71 callsubr
            return
          </CharString>
          <CharString index="135">
            hstem
            50 callgsubr
            674 169 vstem
            return
          </CharString>
          <CharString index="136">
            rmoveto
            -69 callgsubr
            -285 return
          </CharString>
          <CharString index="137">
            107 callgsubr
            86 -68.02000427246094 88 57.02000427246094 215 204.99000549316406 68 101 rlinecurve
            return
          </CharString>
          <CharString index="138">
            147 callgsubr
            103 -47 callsubr
            return
          </CharString>
          <CharString index="139">
            -13 1017.9900054931641 109 callsubr
            114 callgsubr
            return
          </CharString>
          <CharString index="140">
            19 callgsubr
            48 -40 58 -4 callsubr
            return
          </CharString>
          <CharString index="141">
            -72 callgsubr
            rrcurveto
            return
          </CharString>
          <CharString index="142">
            58 662.9900054931641 -32 callgsubr
            634.0099945068359 125 return
          </CharString>
          <CharString index="143">
            hstem
            -8 callsubr
            vstem
            return
          </CharString>
          <CharString index="144">
            0 callsubr
            rlineto
            return
          </CharString>
          <CharString index="145">
            -50 -74.00999450683594 return
          </CharString>
          <CharString index="146">
            117 callgsubr
            59 51 78 65 -35 47.99000549316406 return
          </CharString>
          <CharString index="147">
            182.99000549316406 166 return
          </CharString>
          <CharString index="148">
            4 rmoveto
            -181 -87 -106 -129 -69 callgsubr
            vhcurveto
            -129 -1 -77 128 163 vvcurveto
            180 87 110 130 2 vhcurveto
            135 -60 callgsubr
            70 -123 -173 vvcurveto
            return
          </CharString>
          <CharString index="149">
            rmoveto
            -164 -3 -169 -86 -86 7 callsubr
            8.009994506835938 156.02000427246094 rcurveline
            return
          </CharString>
          <CharString index="150">
            rmoveto
            -124 543 124 -543 vlineto
            return
          </CharString>
          <CharString index="151">
            -70 rlineto
            -38 vlineto
            37.99000549316406 -10 return
          </CharString>
          <CharString index="152">
            241 -226 115 -203 97 return
          </CharString>
          <CharString index="153">
            -10 34 196 callsubr
            191 callsubr
            144 callgsubr
            83 97 134 vvcurveto
            108.00999450683594 return
          </CharString>
          <CharString index="154">
            -45 248 26 callsubr
            return
          </CharString>
          <CharString index="155">
            hstem
            101 callgsubr
            161.99000549316406 return
          </CharString>
          <CharString index="156">
            286 -157 64 -232 return
          </CharString>
          <CharString index="157">
            -8.009994506835938 return
          </CharString>
          <CharString index="158">
            234.99000549316406 return
          </CharString>
          <CharString index="159">
            74.02000427246094 return
          </CharString>
          <CharString index="160">
            107.00999450683594 return
          </CharString>
          <CharString index="161">
            179 -85 callsubr
            65 176 145 vvcurveto
            223.99000549316406 -164 132.02000427246094 -333.99000549316406 vhcurveto
            -139 -74.02000427246094 -13 -127 hhcurveto
            return
          </CharString>
          <CharString index="162">
            -47 callsubr
            -149 hlineto
            return
          </CharString>
          <CharString index="163">
            hstem
            18 callgsubr
            vstem
            return
          </CharString>
          <CharString index="164">
            -73 callsubr
            rmoveto
            return
          </CharString>
          <CharString index="165">
            34 callgsubr
            440.00999450683594 93 callgsubr
            vstem
            return
          </CharString>
          <CharString index="166">
            -119.99000549316406 return
          </CharString>
          <CharString index="167">
            107.99000549316406 return
          </CharString>
          <CharString index="168">
            -181 -88 -105 -128 -2 vhcurveto
            -130 -69 callgsubr
            -77 128.99000549316406 163 vvcurveto
            179.02000427246094 88 110 129 -60 callgsubr
            vhcurveto
            return
          </CharString>
          <CharString index="169">
            1873 rmoveto
            -73 callgsubr
            180 callsubr
            -36 rlinecurve
            72 130 callgsubr
            return
          </CharString>
          <CharString index="170">
            49 704.9799957275391 135 hstem
            246.99000549316406 856 vstem
            246.99000549316406 839.9900054931641 rmoveto
            -135 856 135 -856 vlineto
            endchar
          </CharString>
          <CharString index="171">
            -194 -507 109 callsubr
            156 callsubr
            return
          </CharString>
          <CharString index="172">
            102 callsubr
            -85 callsubr
            -54 callsubr
            return
          </CharString>
          <CharString index="173">
            -33 callgsubr
            -115 -126.00999450683594 return
          </CharString>
          <CharString index="174">
            72 callgsubr
            vstem
            return
          </CharString>
          <CharString index="175">
            -88 -80 callgsubr
            return
          </CharString>
          <CharString index="176">
            97.00999450683594 return
          </CharString>
          <CharString index="177">
            123 7 186 callsubr
            -53 callgsubr
            94 152 callsubr
            return
          </CharString>
          <CharString index="178">
            271.99000549316406 -82 callsubr
            return
          </CharString>
          <CharString index="179">
            115 callsubr
            -21.009994506835938 -63 vhcurveto
            7 -23 rlineto
            return
          </CharString>
          <CharString index="180">
            -59 38 callsubr
            -54 callgsubr
            57 hvcurveto
            480.00999450683594 hmoveto
            247 callsubr
            -33 -85 callsubr
            return
          </CharString>
          <CharString index="181">
            163.97999572753906 return
          </CharString>
          <CharString index="182">
            -148.99000549316406 return
          </CharString>
          <CharString index="183">
            67.99000549316406 return
          </CharString>
          <CharString index="184">
            -35 callsubr
            91 callgsubr
            -82 callgsubr
            return
          </CharString>
          <CharString index="185">
            hhcurveto
            99 callgsubr
            94 125 callgsubr
            91 46 hvcurveto
            7 callsubr
            56 rlineto
            82 callgsubr
            -54 callsubr
            -60 -59 -94 hhcurveto
            return
          </CharString>
          <CharString index="186">
            549 38 callgsubr
            284 127 175 -66 callsubr
            540.9999847412109 131 hstem
            838.9799957275391 169 vstem
            return
          </CharString>
          <CharString index="187">
            110 175.97999572753906 return
          </CharString>
          <CharString index="188">
            -120 -123 -13 -95 hhcurveto
            return
          </CharString>
          <CharString index="189">
            -166.99000549316406 return
          </CharString>
          <CharString index="190">
            156.99000549316406 return
          </CharString>
          <CharString index="191">
            -53 100 callsubr
            68 94 101 82 114 rlinecurve
            -130 68 -25.990005493164062 -41.99000549316406 -164 -216 -36 -40 rlinecurve
            return
          </CharString>
          <CharString index="192">
            37 callgsubr
            190 callgsubr
            return
          </CharString>
          <CharString index="193">
            236 callgsubr
            129 -181 221 hhcurveto
            return
          </CharString>
          <CharString index="194">
            45 rlinecurve
            -111 122 callgsubr
            return
          </CharString>
          <CharString index="195">
            -99 -91 -85.00999450683594 -41 hvcurveto
            return
          </CharString>
          <CharString index="196">
            1935.990005493164 rmoveto
            return
          </CharString>
          <CharString index="197">
            -48.99000549316406 return
          </CharString>
          <CharString index="198">
            -177.99000549316406 return
          </CharString>
          <CharString index="199">
            183.99000549316406 return
          </CharString>
          <CharString index="200">
            233 callgsubr
            -59 callgsubr
            156 176 vvcurveto
            103 -18 97 -41.99000549316406 38 vhcurveto
            return
          </CharString>
          <CharString index="201">
            6 callgsubr
            -69 callgsubr
            -32 -146 return
          </CharString>
          <CharString index="202">
            534.0200042724609 -391 -534.0200042724609 -388.02000427246094 44 -121 653 436 rlineto
            141 vlineto
            -653 448 return
          </CharString>
          <CharString index="203">
            -76 185 callgsubr
            162 callsubr
            170 679 170 vstem
            return
          </CharString>
          <CharString index="204">
            -96 callsubr
            -60 callsubr
            return
          </CharString>
          <CharString index="205">
            61.99000549316406 return
          </CharString>
          <CharString index="206">
            14.990005493164062 return
          </CharString>
          <CharString index="207">
            84.99000549316406 return
          </CharString>
          <CharString index="208">
            -55.99000549316406 return
          </CharString>
          <CharString index="209">
            -67.99000549316406 return
          </CharString>
          <CharString index="210">
            -47 -70.99000549316406 -59 -102.00999450683594 hhcurveto
            hintmask 01011000
            -153 -40 172 53 callgsubr
            hhcurveto
            -157 -116 return
          </CharString>
          <CharString index="211">
            -298 120 callgsubr
            rlineto
            return
          </CharString>
          <CharString index="212">
            -47 callgsubr
            rlineto
            return
          </CharString>
          <CharString index="213">
            1461.990005493164 rmoveto
            143 callsubr
            return
          </CharString>
          <CharString index="214">
            rmoveto
            -15 callgsubr
            return
          </CharString>
          <CharString index="215">
            87 callgsubr
            110 47 return
          </CharString>
          <CharString index="216">
            138.99000549316406 return
          </CharString>
          <CharString index="217">
            224.99000549316406 return
          </CharString>
          <CharString index="218">
            -49.99000549316406 return
          </CharString>
          <CharString index="219">
            197 callgsubr
            232 callsubr
            return
          </CharString>
          <CharString index="220">
            50 111 callsubr
            59 hhcurveto
            -10 callgsubr
            58 58.97999572753906 82 -72 callgsubr
            hvcurveto
            68 -2 return
          </CharString>
          <CharString index="221">
            -45 248 92 callgsubr
            return
          </CharString>
          <CharString index="222">
            155 callgsubr
            -39 -67.02000427246094 return
          </CharString>
          <CharString index="223">
            hhcurveto
            -151 -157 -72.99000549316406 -184.02000427246094 return
          </CharString>
          <CharString index="224">
            224 callsubr
            -40 87 callsubr
            return
          </CharString>
          <CharString index="225">
            151 callgsubr
            106 callgsubr
            return
          </CharString>
          <CharString index="226">
            102 callsubr
            44 -54 callsubr
            return
          </CharString>
          <CharString index="227">
            -3 callgsubr
            55 24 return
          </CharString>
          <CharString index="228">
            hhcurveto
            53 callsubr
            return
          </CharString>
          <CharString index="229">
            1390.979995727539 return
          </CharString>
          <CharString index="230">
            -108.00999450683594 return
          </CharString>
          <CharString index="231">
            -103.02000427246094 return
          </CharString>
          <CharString index="232">
            117.99000549316406 return
          </CharString>
          <CharString index="233">
            -33 callgsubr
            193 callgsubr
            -49 callsubr
            return
          </CharString>
          <CharString index="234">
            -54 83 callgsubr
            -61 hhcurveto
            135 callgsubr
            -210 -111.99000549316406 -338 hvcurveto
            -92 vlineto
            return
          </CharString>
          <CharString index="235">
            -133 -41 -10 155 callgsubr
            return
          </CharString>
          <CharString index="236">
            338.99000549316406 -93.02999877929688 118 -240.99000549316406 -87 callsubr
            vhcurveto
            endchar
          </CharString>
          <CharString index="237">
            -1180 vlineto
            140 callgsubr
            return
          </CharString>
          <CharString index="238">
            -32.99000549316406 return
          </CharString>
          <CharString index="239">
            171.99000549316406 return
          </CharString>
          <CharString index="240">
            -123.99000549316406 return
          </CharString>
          <CharString index="241">
            -120.02000427246094 return
          </CharString>
          <CharString index="242">
            239.97999572753906 return
          </CharString>
          <CharString index="243">
            108 callsubr
            -280 296 rlineto
            -149 hlineto
            return
          </CharString>
          <CharString index="244">
            rmoveto
            143 callgsubr
            return
          </CharString>
          <CharString index="245">
            7 11 -17 205 callsubr
            23 return
          </CharString>
          <CharString index="246">
            213.99000549316406 -82 callsubr
            return
          </CharString>
          <CharString index="247">
            1588.979995727539 rmoveto
            return
          </CharString>
          <CharString index="248">
            -20 callgsubr
            hstemhm
            return
          </CharString>
          <CharString index="249">
            151 callsubr
            vhcurveto
            return
          </CharString>
          <CharString index="250">
            -10 callgsubr
            -53.99000549316406 rlineto
            -85 callsubr
            38 -33 callsubr
            60 return
          </CharString>
          <CharString index="251">
            -3 rrcurveto
            75 callgsubr
            -116 4.0099945068359375 7.9900054931640625 -61 hvcurveto
            endchar
          </CharString>
          <CharString index="252">
            hstem
            80 callsubr
            872 163 vstem
            return
          </CharString>
          <CharString index="253">
            -65 callsubr
            833 176 vstem
            return
          </CharString>
          <CharString index="254">
            hstemhm
            40 callsubr
            return
          </CharString>
          <CharString index="255">
            174 25 214 129 return
          </CharString>
          <CharString index="256">
            -102.99000549316406 return
          </CharString>
          <CharString index="257">
            822.9799957275391 return
          </CharString>
          <CharString index="258">
            -85 callsubr
            -18 callgsubr
            75 callgsubr
            38 callsubr
            return
          </CharString>
          <CharString index="259">
            125 callgsubr
            91 46 hvcurveto
            -26 callgsubr
            56 rlineto
            82 callgsubr
            -38 return
          </CharString>
          <CharString index="260">
            81 callsubr
            -36 callgsubr
            return
          </CharString>
          <CharString index="261">
            158 371.99000549316406 hvcurveto
            1116 -165.99000549316406 -1180 vlineto
            -244 return
          </CharString>
          <CharString index="262">
            -120 44 callsubr
            return
          </CharString>
          <CharString index="263">
            hstem
            -59 callgsubr
            1010.9900054931641 vstem
            return
          </CharString>
          <CharString index="264">
            -475 1008.9799957275391 147 return
          </CharString>
          <CharString index="265">
            -50 callsubr
            vstem
            return
          </CharString>
          <CharString index="266">
            1711.979995727539 rmoveto
            return
          </CharString>
          <CharString index="267">
            rlineto
            -69 callsubr
            return
          </CharString>
          <CharString index="268">
            231.99000549316406 return
          </CharString>
          <CharString index="269">
            102.99000549316406 return
          </CharString>
          <CharString index="270">
            -153.99000549316406 return
          </CharString>
          <CharString index="271">
            103.02000427246094 return
          </CharString>
          <CharString index="272">
            21 -1307.009994506836 228 callgsubr
            18 1307.009994506836 rlineto
            -187 hlineto
            return
          </CharString>
          <CharString index="273">
            -196 -6 -179 -33 callgsubr
            -261.02000427246094 vvcurveto
            572 3 rmoveto
            return
          </CharString>
          <CharString index="274">
            87 callsubr
            94 -99 182 -129 111 -56 rlinecurve
            return
          </CharString>
          <CharString index="275">
            85 callgsubr
            vstem
            return
          </CharString>
          <CharString index="276">
            114.00999450683594 424.00001525878906 64 398 110.97999572753906 hstemhm
            return
          </CharString>
          <CharString index="277">
            1334.990005493164 rmoveto
            7 callgsubr
            return
          </CharString>
          <CharString index="278">
            hstem
            -27 callgsubr
            return
          </CharString>
          <CharString index="279">
            69 callsubr
            rlineto
            -39.02000427246094 return
          </CharString>
          <CharString index="280">
            1016.9900054931641 140 return
          </CharString>
          <CharString index="281">
            499 935 rlineto
            endchar
          </CharString>
          <CharString index="282">
            120.02000427246094 return
          </CharString>
          <CharString index="283">
            -117.99000549316406 return
          </CharString>
          <CharString index="284">
            136.99000549316406 return
          </CharString>
          <CharString index="285">
            1666.990005493164 return
          </CharString>
          <CharString index="286">
            111.99000549316406 return
          </CharString>
          <CharString index="287">
            -44.99000549316406 return
          </CharString>
          <CharString index="288">
            hstem
            343.97999572753906 154 vstem
            343.97999572753906 1780 rmoveto
            return
          </CharString>
          <CharString index="289">
            112 -0.9799957275390625 79 -58 -105 vvcurveto
            -53 callsubr
            -86 -51 return
          </CharString>
          <CharString index="290">
            -62 -96 callsubr
            -66 callsubr
            918.9900054931641 122 return
          </CharString>
          <CharString index="291">
            150 -166 214 callgsubr
            return
          </CharString>
          <CharString index="292">
            hstemhm
            50 callgsubr
            return
          </CharString>
          <CharString index="293">
            2 callgsubr
            176 hhcurveto
            return
          </CharString>
          <CharString index="294">
            1344.979995727539 rmoveto
            return
          </CharString>
          <CharString index="295">
            -235 18 callsubr
            vstem
            return
          </CharString>
          <CharString index="296">
            vstem
            14 callgsubr
            -1521.990005493164 return
          </CharString>
          <CharString index="297">
            hstem
            123 callgsubr
            1846 vstem
            return
          </CharString>
          <CharString index="298">
            -26.990005493164062 return
          </CharString>
          <CharString index="299">
            -97.02000427246094 return
          </CharString>
          <CharString index="300">
            -188.99000549316406 return
          </CharString>
          <CharString index="301">
            -56.02000427246094 return
          </CharString>
          <CharString index="302">
            -46.97999572753906 return
          </CharString>
          <CharString index="303">
            -60 -70 vvcurveto
            -75 return
          </CharString>
          <CharString index="304">
            114 callgsubr
            596 12 callsubr
            return
          </CharString>
          <CharString index="305">
            -52 244 callgsubr
            245 callgsubr
            172 vstem
            return
          </CharString>
          <CharString index="306">
            1 callgsubr
            -13 36 vhcurveto
            133 -46 callsubr
            return
          </CharString>
          <CharString index="307">
            69 callsubr
            hstem
            203.97999572753906 109.00999450683594 return
          </CharString>
          <CharString index="308">
            -4 callgsubr
            hintmask 0000000000000000
            return
          </CharString>
          <CharString index="309">
            98 594 845.9900054931641 -29 52 callsubr
            rlineto
            return
          </CharString>
          <CharString index="310">
            vlineto
            -144.02000427246094 -68.00999450683594 -88 -21 -39 vhcurveto
            return
          </CharString>
          <CharString index="311">
            1139 165 callgsubr
            return
          </CharString>
          <CharString index="312">
            hvcurveto
            212 callgsubr
            return
          </CharString>
          <CharString index="313">
            51 callsubr
            hstem
            return
          </CharString>
          <CharString index="314">
            160.99000549316406 return
          </CharString>
          <CharString index="315">
            -135.99000549316406 return
          </CharString>
          <CharString index="316">
            1321.979995727539 return
          </CharString>
          <CharString index="317">
            102.00999450683594 return
          </CharString>
          <CharString index="318">
            -73.00999450683594 return
          </CharString>
          <CharString index="319">
            169 535 hlineto
            40 99 -8 108.00999450683594 hhcurveto
            return
          </CharString>
          <CharString index="320">
            123 hstemhm
            -68 callsubr
            833 176 return
          </CharString>
          <CharString index="321">
            -274 263 return
          </CharString>
          <CharString index="322">
            -216 698.9799957275391 131 561 131 return
          </CharString>
          <CharString index="323">
            19 callgsubr
            234 callsubr
            return
          </CharString>
          <CharString index="324">
            46 77 65 -33.02000427246094 -85 callsubr
            return
          </CharString>
          <CharString index="325">
            hvcurveto
            131 callgsubr
            vlineto
            -53 -80 callgsubr
            return
          </CharString>
          <CharString index="326">
            140 callsubr
            71 71 return
          </CharString>
          <CharString index="327">
            252 vvcurveto
            157.97999572753906 return
          </CharString>
          <CharString index="328">
            69 callgsubr
            -45 -36 rlinecurve
            return
          </CharString>
          <CharString index="329">
            85.02000427246094 return
          </CharString>
          <CharString index="330">
            253.99000549316406 return
          </CharString>
          <CharString index="331">
            36 -262 234 return
          </CharString>
          <CharString index="332">
            128.97999572753906 return
          </CharString>
          <CharString index="333">
            -276.99000549316406 return
          </CharString>
          <CharString index="334">
            -94.99000549316406 return
          </CharString>
          <CharString index="335">
            178 -2 112 1302.990005493164 123 return
          </CharString>
          <CharString index="336">
            329.00999450683594 -169 -329.00999450683594 return
          </CharString>
          <CharString index="337">
            -61 callgsubr
            1253.989990234375 135 return
          </CharString>
          <CharString index="338">
            -71 -60 callgsubr
            50 -50.970001220703125 return
          </CharString>
          <CharString index="339">
            -61 -81 callgsubr
            -53.99000549316406 -71 return
          </CharString>
          <CharString index="340">
            172.99000549316406 vstem
            return
          </CharString>
          <CharString index="341">
            47.99000549316406 -40 return
          </CharString>
          <CharString index="342">
            -115 197 -185 return
          </CharString>
          <CharString index="343">
            -269 228 callgsubr
            return
          </CharString>
          <CharString index="344">
            rmoveto
            134 callsubr
            return
          </CharString>
          <CharString index="345">
            169.010009765625 206 callsubr
            return
          </CharString>
          <CharString index="346">
            286 319 vvcurveto
            437 -296 239 return
          </CharString>
          <CharString index="347">
            131 hstem
            124 callgsubr
            171 vstem
            return
          </CharString>
          <CharString index="348">
            109 -205 281 359 vvcurveto
            384 return
          </CharString>
          <CharString index="349">
            1689.990005493164 rmoveto
            65 return
          </CharString>
          <CharString index="350">
            -14.990005493164062 150 return
          </CharString>
          <CharString index="351">
            -83 callsubr
            hhcurveto
            -64 return
          </CharString>
          <CharString index="352">
            64.99000549316406 return
          </CharString>
          <CharString index="353">
            1155.990005493164 return
          </CharString>
          <CharString index="354">
            64 57 46 77 65 return
          </CharString>
          <CharString index="355">
            232.97999572753906 return
          </CharString>
          <CharString index="356">
            40.97999572753906 return
          </CharString>
          <CharString index="357">
            5.0200042724609375 return
          </CharString>
          <CharString index="358">
            121.02000427246094 return
          </CharString>
          <CharString index="359">
            -82 callsubr
            539.9999847412109 return
          </CharString>
          <CharString index="360">
            149 callgsubr
            -20 callgsubr
            return
          </CharString>
          <CharString index="361">
            97 -69 callsubr
            274 263 return
          </CharString>
          <CharString index="362">
            -54 callsubr
            -59 callgsubr
            return
          </CharString>
          <CharString index="363">
            166 hintmask 00000000
            return
          </CharString>
        <CharString name=".notdef">
          571 0 218.99000549316406 973.989990234375 223 hstem
          227.97999572753906 229 960.010009765625 227 vstem
          227.97999572753906 1415.990005493164 rmoveto
          -1415.990005493164 1416.009994506836 1415.990005493164 -1416.009994506836 vlineto
          705 -828.9900054931641 rmoveto
          -347 -368 -128 144 357.99000549316406 342 -358.99000549316406 363.00999450683594 123 -50 callgsubr
          356.99000549316406 -367.99000549316406 352.00999450683594 366 128 -124 -363.00999450683594 -357.99000549316406 363.00999450683594 -368 -122 -122 -362 368 rlineto
          endchar
        </CharString>
        <CharString name="A">
          85 callsubr
          1177.990005493164 hmoveto
          -103 callgsubr
        </CharString>
        <CharString name="AE">
          79 callsubr
          1007.9799957275391 133 -44 callgsubr
        </CharString>
        <CharString name="AEacute">
          79 callsubr
          1356.979995727539 62 callsubr
          -349 -1740 -44 callgsubr
        </CharString>
        <CharString name="Aacute">
          85 callsubr
          1036.979995727539 62 callsubr
          141 -1873 rmoveto
          -103 callgsubr
        </CharString>
        <CharString name="Abreve">
          37 callgsubr
          1096.989990234375 132 190 callgsubr
          698 1641.979995727539 rmoveto
          6 callgsubr
          -1 -57 callsubr
          -146 -190 4 callgsubr
          -173 -12 -60 callsubr
          -152 224 hhcurveto
          479.99000549316406 -1641.979995727539 rmoveto
          -103 callgsubr
        </CharString>
        <CharString name="Acircumflex">
          37 callgsubr
          1316.989990234375 120.00999450683594 190 callgsubr
          698 136 callsubr
          -277 104 callsubr
          479.99000549316406 -1861.979995727539 rmoveto
          -103 callgsubr
        </CharString>
        <CharString name="Adieresis">
          37 callgsubr
          1144.989990234375 161 callsubr
          hstem
          345.97999572753906 110 callsubr
          254.02000427246094 177 callgsubr
          vstem
          449.99000549316406 242 callsubr
          -59 callgsubr
          46 77 65 -33 -85 callsubr
          -71 -61.99000549316406 73 callsubr
          -72 -61 75 callgsubr
          38 callsubr
          67 callgsubr
          hvcurveto
          194 callgsubr
          -1689.990005493164 rmoveto
          -103 callgsubr
        </CharString>
        <CharString name="Agrave">
          85 callsubr
          746.9900054931641 219 callsubr
          -45 117 callsubr
          93.99000549316406 -99 182 -129 111 -56 rlinecurve
          431 -1588.979995727539 rmoveto
          -103 callgsubr
        </CharString>
        <CharString name="Amacron">
          37 callgsubr
          1198 124 hstemhm
          428.99000549316406 542.9799957275391 hintmask 00000000
          hintmask 11100000
          971.9799957275391 1867 rmoveto
          -542.9900054931641 204 callgsubr
          hlineto
          206 -1867 rmoveto
          -103 callgsubr
        </CharString>
        <CharString name="Aogonek">
          92 -512 113 816.9900054931641 127 hstem
          901.9799957275391 164 vstem
          1216 234 callgsubr
          181 callgsubr
          -64 163 callgsubr
          93 -2 hvcurveto
          -1 117 157 53 callsubr
          210 callsubr
          -59 callgsubr
          rrcurveto
          37 hlineto
          -574.0200042724609 1537.990005493164 rlineto
          -165.99000549316406 hlineto
          -588 -1537.990005493164 rlineto
          180 hlineto
          153 418 rlineto
          664.9900054931641 hlineto
          147 -418 rlineto
          13 hlineto
          -53 callsubr
          -59 -171.99000549316406 -112.99000549316406 -60 callgsubr
          -140 rrcurveto
          -136 1 53 callsubr
          -64 133 hhcurveto
          125 callgsubr
          -47 callgsubr
          198 callgsubr
          -57 -14 -51 -69 callgsubr
          rrcurveto
          -803 943.9799957275391 rmoveto
          254 694 37.99000549316406 121 38 1 callsubr
          244 -694.9900054931641 rlineto
          -574 hlineto
          endchar
        </CharString>
        <CharString name="Aring">
          37 callgsubr
          1332 95 hstem
          387.99000549316406 -53 callgsubr
          382.00999450683594 125 callsubr
          vstem
          1177.990005493164 hmoveto
          183 hlineto
          -550.0099945068359 1473.990005493164 111 30 83 77 -60 callgsubr
          138 rlinecurve
          165 1 59 callsubr
          88 -189 hhcurveto
          -151 -157 7 callsubr
          -183.99000549316406 -87 callsubr
          hvcurveto
          -2 -132.02000427246094 78 109 callgsubr
          -66 callsubr
          -30 -561.9900054931641 -1468.990005493164 rcurveline
          180 hlineto
          153 418 rlineto
          664.9900054931641 hlineto
          147 -418 rlineto
          -671 1721 rmoveto
          121 1 69 callsubr
          35 93 hhcurveto
          179 callsubr
          -1 79.02000427246094 -53 -105 vvcurveto
          176 callsubr
          -86.02000427246094 82 callgsubr
          8 callgsubr
          1 vhcurveto
          -42 callgsubr
          2 -70 98 callsubr
          0.9900054931640625 101.00999450683594 rrcurveto
          -93.99000549316406 -1176 rmoveto
          254 694 37.99000549316406 121 38 1 callsubr
          244 -694.9900054931641 rlineto
          -574 hlineto
          endchar
        </CharString>
        <CharString name="Atilde">
          37 callgsubr
          1122 127 27 103 callgsubr
          hstemhm
          90 callgsubr
          1328 hintmask 10110000
          538.9900054931641 1821 rmoveto
          hintmask 11110000
          -27 callsubr
          -67.02000427246094 -59 callgsubr
          rlineto
          -45 -54 callsubr
          7 callsubr
          -60 -81 hhcurveto
          hintmask 10110000
          -121 255 callgsubr
          8 callsubr
          -118.00999450683594 -81 -12 callsubr
          -42 hvcurveto
          227 callgsubr
          -54 rlineto
          46 44 callgsubr
          62 80 hhcurveto
          639 -1821 rmoveto
          -103 callgsubr
        </CharString>
        <CharString name="B">
          182 callgsubr
          hstemhm
          -78 callsubr
          -50 callsubr
          597.9999847412109 164 -66.989990234375 132 callsubr
          hintmask 11110100
          -78 callsubr
          1523 16 callgsubr
          hintmask 11111000
          54 callsubr
          hintmask 11110100
          -92 1 rlineto
          hintmask 11111000
          -2 callgsubr
          hintmask 11110100
          20 callgsubr
        </CharString>
        <CharString name="C">
          27 -30 callgsubr
          156 callgsubr
          802.9799957275391 1537.990005493164 -101 callsubr
        </CharString>
        <CharString name="CR">
          -1301 endchar
        </CharString>
        <CharString name="Cacute">
          27 -30 callgsubr
          156 callgsubr
          682.9900054931641 -71 callsubr
          119.99000549316406 -122 -101 callsubr
        </CharString>
        <CharString name="Ccaron">
          27 -30 callgsubr
          129.00999450683594 113 156 callgsubr
          460.97999572753906 241 callgsubr
          148 hlineto
          167 callgsubr
          192 callsubr
          -46 rlineto
          342 -398 -101 callsubr
        </CharString>
        <CharString name="Ccedilla">
          27 -463.99000549316406 -53 callgsubr
          330.00999450683594 132.97999572753906 1282.000015258789 137.99000549316406 hstem
          139 callgsubr
          480.00999450683594 -7 callsubr
          vstem
          1196.990005493164 207.99000549316406 rmoveto
          -35 -54 -151 -55 -189.99000549316406 hhcurveto
          -334.00999450683594 -193 277.00999450683594 371 406 221 228 316.00999450683594 229 88.99000549316406 -55 -14.990005493164062 46 hvcurveto
          24 150 rlineto
          14.009994506835938 -61.99000549316406 -104 -85 callsubr
          -231.02000427246094 hhcurveto
          -380.99000549316406 -315 -280 -503.99000549316406 -442 194 callgsubr
          -302 389.02000427246094 -24 hvcurveto
          11 -54 callsubr
          7 -52 -7 -76 rrcurveto
          250 callgsubr
          246 callgsubr
          hhcurveto
          -36.99000549316406 -36 59 callgsubr
          250 callsubr
          89.99000549316406 -11.020004272460938 75.02000427246094 -23.990005493164062 52 179 7.9900054931640625 87 -85 callsubr
          112 callgsubr
          27.020004272460938 30 callgsubr
          rcurveline
          endchar
        </CharString>
        <CharString name="Ccircumflex">
          27 -30 callgsubr
          323.99998474121094 120.00999450683594 156 callgsubr
          449.99000549316406 121 callgsubr
          104 -45 248.02000427246094 222.99000549316406 0 callgsubr
          rlineto
          352.99000549316406 -146 -101 callsubr
        </CharString>
        <CharString name="Cdotaccent">
          27 -30 callgsubr
          153.00999450683594 206 callsubr
          139 callgsubr
          413.99998474121094 227 vstem
          688.9900054931641 -31 callgsubr
          -32 callgsubr
          -263 -101 callsubr
        </CharString>
        <CharString name="D">
          178 -2 112 1302.990005493164 123 hstem
          205.99000549316406 169 833 176 189 callsubr
          -102 callsubr
          153 callsubr
          459 -1412 5 callsubr
        </CharString>
        <CharString name="Dcaron">
          228 callsubr
          131 113 146 callsubr
          372.97999572753906 -76 callsubr
          -244 202 192 callsubr
          -46 rlineto
          -167 -414 -39 callgsubr
          -102 callsubr
          153 callsubr
          459 -1412 5 callsubr
        </CharString>
        <CharString name="Dcroat">
          -89 callgsubr
        </CharString>
        <CharString name="E">
          -98 0 -70 callsubr
          hstem
          205.99000549316406 169 vstem
          205.99000549316406 1521.990005493164 -93 callsubr
        </CharString>
        <CharString name="Eacute">
          -98 0 -70 callsubr
          88 callgsubr
          124 callgsubr
          221 callgsubr
          124 -51 callgsubr
          82 callgsubr
          -36 rlinecurve
          -347 -138 -93 callsubr
        </CharString>
        <CharString name="Ebreve">
          -98 0 -70 callsubr
          120 132 88 callgsubr
          334.99000549316406 55 callgsubr
          224 hhcurveto
          211.99000549316406 137 152 173 -12 hvcurveto
          77 callgsubr
          hlineto
          195 callsubr
          -1 -32 -146 -190 4 callgsubr
          -129 -444.99000549316406 -93 callsubr
        </CharString>
        <CharString name="Ecaron">
          -98 0 -70 callsubr
          145.010009765625 113 88 callgsubr
          331.97999572753906 -76 callsubr
          -244 202 248 callgsubr
          -46 rlineto
          -126 -414 -93 callsubr
        </CharString>
        <CharString name="Ecircumflex">
          -98 0 -70 callsubr
          340 120.00999450683594 88 callgsubr
          320.97999572753906 21 callsubr
          75 callsubr
          hlineto
          -277.02000427246094 -298 rlineto
          -115 -162 -93 callsubr
        </CharString>
        <CharString name="Edieresis">
          -98 0 -70 callsubr
          168 161 callsubr
          hstemhm
          -68 callsubr
          -54.010009765625 225 254 177 callgsubr
          hintmask 00000000
          hintmask 11110110
          320.97999572753906 1797.979995727539 rmoveto
          -54 callgsubr
          57 65 100 callgsubr
          217 callsubr
          -70.99000549316406 -62 -16 callgsubr
          -33 -85 callsubr
          -72 -81 callgsubr
          -60 98 callgsubr
          hintmask 11101000
          -594 -275.99000549316406 -93 callsubr
        </CharString>
        <CharString name="Edotaccent">
          -98 0 -70 callsubr
          238 callsubr
          -78 callsubr
          169 184.989990234375 227 vstem
          559.9799957275391 -31 callgsubr
          -354 -279 -93 callsubr
        </CharString>
        <CharString name="Egrave">
          -98 0 -70 callsubr
          88 callgsubr
          721.9799957275391 219 callsubr
          -45 -16 callsubr
          -516 -26 callgsubr
          -93 callsubr
        </CharString>
        <CharString name="Emacron">
          -98 0 -70 callsubr
          221.010009765625 124 hstemhm
          -68 callsubr
          27.989990234375 543 hintmask 00000000
          hintmask 11111100
          402.97999572753906 1867 rmoveto
          -124 543.0099945068359 124 -543.0099945068359 vlineto
          hintmask 11111000
          -197 -345 -93 callsubr
        </CharString>
        <CharString name="Eng">
          279 -403 1924.990005493164 hstem
          205.47999572753906 165.50999450683594 831.0000152587891 -28 callsubr
          vstem
          1201.990005493164 57 callsubr
          -999 vlineto
          99 callsubr
          -304 -134 235.99000549316406 -720 1067.009994506836 rlineto
          -158 hlineto
          1 -80 callsubr
          rlineto
          165 971.9799957275391 hlineto
          -9.020004272460938 314 144.02000427246094 -245.99000549316406 682.9900054931641 -1005.0200042724609 -87 callsubr
          -133.97999572753906 -209 82 callsubr
          -199 -57 rlinecurve
          44 246 callgsubr
          186 29 244 137.02000427246094 69 228.99000549316406 rlinecurve
          42 122 5 139 152 vvcurveto
          1117 -165.99000549316406 vlineto
          endchar
        </CharString>
        <CharString name="Eogonek">
          -98 -512 113 399 -70 callsubr
          -65 callsubr
          252 164 vstem
          1058 hmoveto
          102 callgsubr
          133 -762 588 503.00999450683594 -66 callsubr
          -503.00999450683594 539 689.0099945068359 131 -858.0099945068359 -80 callsubr
          717 hlineto
          -141 -58 -157 -122 2 -139 rrcurveto
          -136 1 105.99000549316406 -57 134 hhcurveto
          82 -14 callgsubr
          21 41 53 hvcurveto
          131 callgsubr
          vlineto
          -52 -80 callgsubr
          176 callgsubr
          -14 111 callsubr
          -69 callgsubr
          rrcurveto
          -83 -65 163 callgsubr
          93 -69 callgsubr
          hvcurveto
          -2 117 161 53 callsubr
          108.00999450683594 -59 callgsubr
          rrcurveto
          endchar
        </CharString>
        <CharString name="Eth">
          -89 callgsubr
        </CharString>
        <CharString name="Euro">
          221 -28 103 callgsubr
          432.010009765625 110 262 108.99000549316406 403.00999450683594 127 hstem
          310.97999572753906 182 vstem
          1324.990005493164 186.97999572753906 rmoveto
          -41.99000549316406 -75 -132.02000427246094 -50 91 callsubr
          hhcurveto
          -264.00999450683594 133 callsubr
          173 259.00999450683594 -42 hvcurveto
          561.9900054931641 110 -573.9900054931641 hlineto
          -4 42 -1 42.99000549316406 45.02000427246094 vvcurveto
          47 -60 callgsubr
          -85 callsubr
          250 callsubr
          41 vhcurveto
          605 108.99000549316406 -587.0200042724609 hlineto
          274 64 178 129 209 hhcurveto
          165 -1 88.99000549316406 -27 133 callgsubr
          -42 41 134 rcurveline
          -82 150 callgsubr
          181 callgsubr
          48 -203 -6 -321 -8.990005493164062 -227.99000549316406 -191 -81 -330.02000427246094 rrcurveto
          -193 -108.99000549316406 173 hlineto
          50 callsubr
          -56 -4 -60 -63 vvcurveto
          -28 1 -28.020004272460938 1 -27 vhcurveto
          -194 -110 206 hlineto
          -336 53 198.99000549316406 -218.99000549316406 342.02000427246094 hhcurveto
          289 75 74.97999572753906 14 88 hvcurveto
          -46 126 rlineto
          endchar
        </CharString>
        <CharString name="F">
          215 callsubr
          hstem
          205.99000549316406 169 vstem
          205.99000549316406 1521.990005493164 63 callgsubr
        </CharString>
        <CharString name="G">
          -75 callgsubr
          145 callsubr
          841.9900054931641 750 -105 callgsubr
          endchar
        </CharString>
        <CharString name="Gbreve">
          -75 callgsubr
          104.00999450683594 132 145 callsubr
          819 1641.979995727539 rmoveto
          22 callgsubr
          -173 -12 -60 callsubr
          -152 224.02000427246094 hhcurveto
          23 -891.9900054931641 -105 callgsubr
          endchar
        </CharString>
        <CharString name="Gcaron">
          -75 callgsubr
          129.02000427246094 113 145 callsubr
          892.9900054931641 178 callsubr
          rmoveto
          167 callgsubr
          -97 -46 240 callgsubr
          -51 -917 -105 callgsubr
          endchar
        </CharString>
        <CharString name="Gcircumflex">
          -75 callgsubr
          324.00999450683594 120.00999450683594 145 callsubr
          817.9900054931641 1861.979995727539 rmoveto
          0 callgsubr
          104.02000427246094 114 callsubr
          rlineto
          24 -1111.990005493164 -105 callgsubr
          endchar
        </CharString>
        <CharString name="Gcommaaccent">
          -75 callgsubr
          hstem
          80 callsubr
          496 143 233 163 vstem
          841.9900054931641 750 -105 callgsubr
          -12 -846.9900054931641 rmoveto
          -120.00999450683594 -70 rlineto
          -38 vlineto
          38 46 callsubr
          -46.02000427246094 77.99000549316406 90 callsubr
          22.020004272460938 vhcurveto
          endchar
        </CharString>
        <CharString name="Gdotaccent">
          -75 callgsubr
          153.02000427246094 206 callsubr
          80 callsubr
          420 227 225 163 vstem
          811.9900054931641 178 callgsubr
          rmoveto
          197 callgsubr
          66 callgsubr
          -70 48 -40 58 hvcurveto
          30 -941 -105 callgsubr
          endchar
        </CharString>
        <CharString name="Gtilde">
          -75 callgsubr
          129.02000427246094 127 27 103 callgsubr
          hstemhm
          80 callsubr
          872 163 hintmask 11101110
          658.9799957275391 1821 rmoveto
          hintmask 11111110
          123 15.009994506835938 -154 166 hhcurveto
          107 116.97999572753906 79.99000549316406 96.02000427246094 43 hvcurveto
          -26 callgsubr
          -59 callgsubr
          rlineto
          -45 -38 -26 callgsubr
          -60 -81 hhcurveto
          hintmask 11101110
          -121.02000427246094 -14.990005493164062 150 -166.02000427246094 214 callgsubr
          -42 hvcurveto
          66 -54 rlineto
          46 38.02000427246094 -33 callsubr
          62 79.99000549316406 hhcurveto
          183 -1071 -105 callgsubr
          endchar
        </CharString>
        <CharString name="H">
          241 709.9799957275391 130 -65 callsubr
          792 169 vstem
          205.99000549316406 1521.990005493164 62 callgsubr
        </CharString>
        <CharString name="Hbar">
          249 702.9900054931641 129.99000549316406 251.99998474121094 60 callsubr
          -65 callsubr
          800 169 vstem
          1559 1192.979995727539 rmoveto
          -215 229 callsubr
          -800.0099945068359 229 callsubr
          -194.99000549316406 -108 249 callgsubr
          -1084.990005493164 169 703 800.0099945068359 -703 169 1084.990005493164 215 108 hlineto
          -384 -360 rmoveto
          -800.0099945068359 252 800.0099945068359 -252 hlineto
          endchar
        </CharString>
        <CharString name="Hcircumflex">
          241 709.9799957275391 130 1022 120.00999450683594 -65 callsubr
          792 169 vstem
          419.97999572753906 21 callsubr
          75 callsubr
          hlineto
          -277.02000427246094 -298 rlineto
          -214 -162 62 callgsubr
        </CharString>
        <CharString name="I">
          -688 0 -73 callsubr
          36 callsubr
          221 1521.990005493164 -88 callgsubr
          endchar
        </CharString>
        <CharString name="I.uc">
          -688 178 callgsubr
          51 callsubr
          hstemhm
          193.99000549316406 227 -200 -83 callgsubr
          hintmask 00000000
          hintmask 11000000
          193.99000549316406 -48 callsubr
          hintmask 10100000
          27.009994506835938 -279 -88 callgsubr
          endchar
        </CharString>
        <CharString name="IJ">
          6 -332 1853.990005493164 hstem
          -8 callsubr
          514.0099945068359 132 callsubr
          vstem
          221 1521.990005493164 -55 callgsubr
        </CharString>
        <CharString name="IJ_acutecomb">
          6 -332 2306.990005493164 hstem
          -8 callsubr
          514.0099945068359 132 callsubr
          24 callsubr
          673.0099945068359 -1 rmoveto
          71.99000549316406 -70.99000549316406 124 209 callgsubr
          -12 callgsubr
          -111 102 -40 221 callsubr
          -640 -136.99000549316406 -55 callgsubr
        </CharString>
        <CharString name="Iacute">
          -688 0 1974.979995727539 hstem
          220.99000549316406 170.99000549316406 24 callsubr
          33 -138 -88 callgsubr
          endchar
        </CharString>
        <CharString name="Ibreve">
          -688 1641.979995727539 132 36 callsubr
          -31 55 callgsubr
          224.02000427246094 hhcurveto
          22 callgsubr
          252 -444.99000549316406 -88 callgsubr
          endchar
        </CharString>
        <CharString name="Icircumflex">
          -688 1861.979995727539 120.00999450683594 36 callsubr
          180 callsubr
          121 callgsubr
          103.97000122070312 -45 248.02000427246094 26 callsubr
          75 callsubr
          hlineto
          -276.97999572753906 -298 rlineto
          265.97999572753906 -162 -88 callgsubr
          endchar
        </CharString>
        <CharString name="Idieresis">
          -688 1689.979995727539 161 callsubr
          hstemhm
          180 callsubr
          110 callsubr
          40.99000549316406 -83 callgsubr
          42.00999450683594 177 callgsubr
          hintmask 00000000
          hintmask 11110000
          180 callsubr
          1797.979995727539 rmoveto
          -69.97999572753906 132 callgsubr
          -38.02000427246094 57 65 56 217 callsubr
          -71 -62 -58.97999572753906 98 callgsubr
          478.97999572753906 hmoveto
          67 callgsubr
          64 57 216 callgsubr
          -41 callgsubr
          -60 98 callgsubr
          hintmask 10100000
          -213 -275.99000549316406 -88 callgsubr
          endchar
        </CharString>
        <CharString name="Idotaccent">
          -688 178 callgsubr
          51 callsubr
          hstemhm
          193.99000549316406 227 -200 -83 callgsubr
          hintmask 00000000
          hintmask 11000000
          193.99000549316406 -48 callsubr
          hintmask 10100000
          27.009994506835938 -279 -88 callgsubr
          endchar
        </CharString>
        <CharString name="Igrave">
          -688 0 1974.979995727539 36 callsubr
          355.97999572753906 219 callsubr
          -45 -16 callsubr
          -134.99000549316406 -26 callgsubr
          -88 callgsubr
          endchar
        </CharString>
        <CharString name="Imacron">
          -688 1742.990005493164 124 36 callsubr
          37.99000549316406 1867 43 callsubr
          183 -345 -88 callgsubr
          endchar
        </CharString>
        <CharString name="Iogonek">
          -688 -512 113 hstemhm
          33.99000549316406 74 callsubr
          23.020004272460938 -83 callgsubr
          hintmask 00000000
          hintmask 11100000
          351.99000549316406 234 callgsubr
          -83 -70 40 92 -1 141 callgsubr
          117 89.99000549316406 -47 callgsubr
          222 callsubr
          54 rrcurveto
          150 callgsubr
          hlineto
          hintmask 10100000
          -73 callsubr
          -170.99000549316406 -80 callsubr
          21 vlineto
          hintmask 11100000
          -95.00999450683594 188 callgsubr
          0.9799957275390625 111 -77 141 hhcurveto
          125 callgsubr
          89.99000549316406 198 callgsubr
          -58 -14 -52 -69 callgsubr
          rrcurveto
          endchar
        </CharString>
        <CharString name="Itilde">
          -688 178 callsubr
          127 27 103 callgsubr
          hstemhm
          -8 callsubr
          hintmask 01100000
          149 callsubr
          237 callgsubr
          -10 callgsubr
          -54 rlineto
          46 44 callgsubr
          62 80 hhcurveto
          hintmask 11100000
          -27 callsubr
          7 callsubr
          -59 callgsubr
          rlineto
          -45 -54 callsubr
          -67.02000427246094 -60 -81 hhcurveto
          hintmask 01100000
          -121 -15 184 callsubr
          -41.99000549316406 hvcurveto
          323.97999572753906 -245 -88 callgsubr
          endchar
        </CharString>
        <CharString name="J">
          -607 -332 1853.990005493164 hstem
          292.97999572753906 172 vstem
          -38.99000549316406 -243 -21 callsubr
        </CharString>
        <CharString name="Jcircumflex">
          -607 118 callsubr
          292.97999572753906 172 vstem
          23.979995727539062 121 callgsubr
          104.02000427246094 -45 194 callgsubr
          222.99000549316406 0 callgsubr
          rlineto
          -62.970001220703125 -1926.979995727539 -21 callsubr
        </CharString>
        <CharString name="K">
          63 0 -73 callsubr
          hstem
          205.99000549316406 169 -58 callsubr
          endchar
        </CharString>
        <CharString name="Kcommaaccent">
          63 -560 2082 -65 callsubr
          286 -43 callsubr
          -58 callsubr
          -501 -207.97000122070312 -13 callgsubr
        </CharString>
        <CharString name="L">
          -235 0 132.99000549316406 hstem
          205.99000549316406 172 -31 callsubr
          endchar
        </CharString>
        <CharString name="Lacute">
          188 callsubr
          -83 callgsubr
          -71 callsubr
          35 -138 145 callgsubr
        </CharString>
        <CharString name="Lcaron">
          -235 18 callsubr
          380.989990234375 206 callgsubr
          705.9900054931641 1062.990005493164 rmoveto
          125 callgsubr
          93 callsubr
          -133.02000427246094 -41 -10 72 callsubr
          -500 459 145 callgsubr
        </CharString>
        <CharString name="Lcommaaccent">
          -235 18 callsubr
          180.989990234375 143 -31 callsubr
          300.00999450683594 -2049.979995727539 -2 callsubr
        </CharString>
        <CharString name="Ldot">
          35 38 callgsubr
          576 15 callgsubr
          hstem
          -78 callsubr
          172 531.989990234375 233 -31 callsubr
          704 -689.0099945068359 rmoveto
          -74 2 51 111 callsubr
          58 hhcurveto
          227 callgsubr
          59 59 81.97999572753906 -3 hvcurveto
          76 callgsubr
          -1 -38 -59 callgsubr
          -72 hhcurveto
          -64 -59 -62 226 callgsubr
          1 hvcurveto
          endchar
        </CharString>
        <CharString name="Lslash">
          188 callsubr
          378 133 rmoveto
          553.9900054931641 vlineto
          469 172 -41 106 -428 -158 rlineto
          715 -172 -778 vlineto
          -194 -72.00999450683594 41 -104 153 -59 callgsubr
          rlineto
          -623.9799957275391 46 callgsubr
          vlineto
          endchar
        </CharString>
        <CharString name="M">
          624 1396.979995727539 125 hstem
          15 callsubr
          1628.990005493164 vstem
          310.97999572753906 1521.990005493164 -52 callgsubr
        </CharString>
        <CharString name="N">
          252 0 -73 callsubr
          168 callsubr
          1192.979995727539 57 callsubr
          -996 vlineto
          -100 callsubr
          hlineto
          endchar
        </CharString>
        <CharString name="NULL">
          -1301 endchar
        </CharString>
        <CharString name="Nacute">
          252 0 1974.979995727539 168 callsubr
          1124.990005493164 25 callsubr
          71.99000549316406 -71 224 callgsubr
          -23 callgsubr
          68 -351 rmoveto
          -996 vlineto
          -100 callsubr
          hlineto
          endchar
        </CharString>
        <CharString name="Ncaron">
          252 178 callsubr
          113 168 callsubr
          861.9799957275391 178 callsubr
          rmoveto
          128 callgsubr
          268 -269 rlineto
          180 callgsubr
          hlineto
          331 -145 rmoveto
          -996 vlineto
          -100 callsubr
          hlineto
          endchar
        </CharString>
        <CharString name="Ncommaaccent">
          252 -560 2082 hstem
          204.97999572753906 93 callgsubr
          362.00999450683594 143 327 155 vstem
          1192.979995727539 57 callsubr
          -996 vlineto
          -100 callsubr
          hlineto
          -421.99000549316406 -1618.979995727539 rmoveto
          -120 -70 rlineto
          -38 vlineto
          37.99000549316406 46 callsubr
          -46 77.99000549316406 -49 22.020004272460938 vhcurveto
          endchar
        </CharString>
        <CharString name="Ntilde">
          252 178 callsubr
          127 27 103 callgsubr
          hstemhm
          17 callgsubr
          hintmask 01110000
          628 1821 rmoveto
          hintmask 11110000
          122.99000549316406 21 callgsubr
          hintmask 01110000
          -121 -15.020004272460938 150 -165.99000549316406 hhcurveto
          -107 -118.00999450683594 -81 -12 callsubr
          -41.97999572753906 hvcurveto
          -10 callgsubr
          -54 rlineto
          46 38 -33 callsubr
          62 80.02000427246094 hhcurveto
          564.9900054931641 -299 rmoveto
          -996 vlineto
          -100 callsubr
          hlineto
          endchar
        </CharString>
        <CharString name="O">
          -79 callgsubr
          -62 callsubr
          110.97999572753906 768.9799957275391 -106 callgsubr
        </CharString>
        <CharString name="OE">
          756 -96 callsubr
          127.97000122070312 -111.97999572753906 133.97999572753906 586.010009765625 60 callgsubr
          538.9999847412109 131 -113 129 hstemhm
          110 169.97999572753906 814 169 hintmask 01110110
          1262.979995727539 133.97999572753906 rmoveto
          586.0099945068359 485 132 -485 539 654 131 -823 vlineto
          hintmask 10101110
          -49 vlineto
          -85 50.02000427246094 -104 18 -89.00999450683594 -3 -402.99000549316406 -13 -294.00999450683594 -257.97999572753906 -8.990005493164062 -503.00999450683594 162 callgsubr
          -454 265.00999450683594 -333.99000549316406 419.99000549316406 8.009994506835938 128 -60 callgsubr
          95 123 callgsubr
          85 57.02000427246094 rrcurveto
          hintmask 01110110
          -75 897 133.97999572753906 -728 vlineto
          hintmask 10101110
          -470 -22 rmoveto
          -339 -174 298 345.00999450683594 455 264 198.99000549316406 268 -50 callgsubr
          131 callgsubr
          -35 111 callsubr
          245 callsubr
          hvcurveto
          -1106 vlineto
          -81 callgsubr
          -69.97999572753906 -102.02000427246094 82 callgsubr
          -129 hhcurveto
          endchar
        </CharString>
        <CharString name="Oacute">
          -79 callgsubr
          -62 callsubr
          688.9900054931641 -71 callsubr
          -578 -891 -106 callgsubr
        </CharString>
        <CharString name="Obreve">
          -79 callgsubr
          104 132 -62 callsubr
          471 1966.979995727539 rmoveto
          -173 -12 126 -152 223.99000549316406 hhcurveto
          212 137 152 173 -11.990005493164062 hvcurveto
          110 callgsubr
          hlineto
          195 callsubr
          -1 -57 callsubr
          -146 -190 hhcurveto
          53 callgsubr
          -25 -43 callsubr
          50 -2 hvcurveto
          -116.99000549316406 hlineto
          -360.02000427246094 -1198 -106 callgsubr
        </CharString>
        <CharString name="Ocircumflex">
          -79 callgsubr
          324 120.00999450683594 -62 callsubr
          252 callgsubr
          121 callgsubr
          120 callgsubr
          244.02000427246094 -222.99000549316406 110 169 callgsubr
          rlineto
          -346.00999450683594 -915 -106 callgsubr
        </CharString>
        <CharString name="Odieresis">
          -79 callgsubr
          152 161 callsubr
          hstem
          110.97999572753906 171 175.010009765625 118 callgsubr
          128.00999450683594 -83 callgsubr
          vstem
          252 callgsubr
          9 callsubr
          -33 142 callsubr
          -825.0200042724609 -1029 -106 callgsubr
        </CharString>
        <CharString name="Ograve">
          -79 callgsubr
          -62 callsubr
          856.9900054931641 219 callsubr
          180 callsubr
          -16 callsubr
          -746 -820 -106 callgsubr
        </CharString>
        <CharString name="Ohungarumlaut">
          -79 callgsubr
          -62 callsubr
          463.99000549316406 1692 rmoveto
          -10 callsubr
          -53 196 callgsubr
          68 94 101 82 114 rlinecurve
          -130 68 -80 callgsubr
          -41.99000549316406 -163.99000549316406 -216 -36 -40 rlinecurve
          466.99000549316406 hmoveto
          96.02000427246094 -53 88 -33 callsubr
          101.00999450683594 105 71.99000549316406 102.02000427246094 rlinecurve
          -124 76 callsubr
          -23 -35 -173 -214 -37 -40 rlinecurve
          -820 -923.0200042724609 -106 callgsubr
        </CharString>
        <CharString name="Omacron">
          -79 callgsubr
          205.010009765625 124 hstem
          110.97999572753906 171 257.010009765625 543 208 -83 callgsubr
          vstem
          538.9900054931641 1867 43 callsubr
          -428.00999450683594 -1098.020004272461 -106 callgsubr
        </CharString>
        <CharString name="Oslash">
          -79 callgsubr
          -62 callsubr
          1095.990005493164 1477.979995727539 -91 callsubr
        </CharString>
        <CharString name="Oslashacute">
          -79 callgsubr
          -62 callsubr
          1076.979995727539 25 callsubr
          51 callgsubr
          130 callgsubr
          19 -395.02000427246094 -91 callsubr
        </CharString>
        <CharString name="Otilde">
          -79 callgsubr
          129.010009765625 127 27 103 callgsubr
          hstemhm
          110.97999572753906 171 1008.010009765625 -83 callgsubr
          hintmask 11011100
          398.99000549316406 237 callgsubr
          66 -54 rlineto
          46 44 callgsubr
          62 80 hhcurveto
          hintmask 11111100
          -27 callsubr
          7 callsubr
          -59 callgsubr
          rlineto
          -45 -54 callsubr
          7 callsubr
          -60 -81 hhcurveto
          hintmask 11011100
          -121 219 callgsubr
          -107 176 callsubr
          -81 -12 callsubr
          -42 hvcurveto
          -288.00999450683594 -998.0099945068359 -106 callgsubr
        </CharString>
        <CharString name="P">
          -22 526.9900054931641 -50 callgsubr
          761.9999847412109 122.00999450683594 -65 callsubr
          649.0099945068359 168.97999572753906 vstem
          205.99000549316406 1521.990005493164 -67 callgsubr
        </CharString>
        <CharString name="Q">
          269 -287 138 133.00999450683594 129.99000549316406 1294.979995727539 129 hstem
          110 -83 callgsubr
          1008 171 vstem
          1332 75 callsubr
          rmoveto
          -161.02000427246094 -128 58 99.97999572753906 -82.97999572753906 hvcurveto
          290 77 202 256 8 421.99000549316406 161 callgsubr
          466 -257 311.00999450683594 -403 -3 -384.99000549316406 -87 callsubr
          -304 -260.02000427246094 -10 -506 162 callgsubr
          -460 258 -333.99000549316406 420 9.020004272460938 rrcurveto
          247 callgsubr
          8 0 1 7 hvcurveto
          -216 158 167 194 callsubr
          206.99000549316406 hhcurveto
          52 callsubr
          71.99000549316406 17 21.009994506835938 31.009994506835938 hvcurveto
          123 vlineto
          -18 -43 195 callgsubr
          -5 -52 hhcurveto
          -1051.009994506836 906.9799957275391 rmoveto
          2 433 229 215 290.97999572753906 2.9900054931640625 320 2 -11 callsubr
          -289 -1 -350 -3 -426 -202 -229.99000549316406 -300 -2 -332 -2 -173 298 -60 callgsubr
          348 rrcurveto
          endchar
        </CharString>
        <CharString name="R">
          35 callsubr
          -65 callsubr
          639.989990234375 233 callsubr
          1235.990005493164 -77 callsubr
          -100 callgsubr
          endchar
        </CharString>
        <CharString name="Racute">
          35 callsubr
          -65 callsubr
          639.989990234375 233 callsubr
          1041 1873 rmoveto
          -73 callgsubr
          82 callgsubr
          -36 rlinecurve
          51 callgsubr
          -71 124 -23 callgsubr
          249 callgsubr
          -1771 -100 callgsubr
          endchar
        </CharString>
        <CharString name="Rcaron">
          35 callsubr
          131 113 -65 callsubr
          639.989990234375 233 callsubr
          776.9900054931641 178 callsubr
          rmoveto
          15 callgsubr
          270.99000549316406 -92 44 -248 -202 -244 202 248 callgsubr
          -46 268 236 callsubr
          459 -1565 -100 callgsubr
          endchar
        </CharString>
        <CharString name="Rcommaaccent">
          35 callsubr
          -65 callsubr
          286 -43 callsubr
          210.99998474121094 233 callsubr
          1235.990005493164 -77 callsubr
          -100 callgsubr
          334.00999450683594 -879.9799957275391 -13 callgsubr
        </CharString>
        <CharString name="S">
          -147 -30 callsubr
          32 callgsubr
          -6 callgsubr
          73.99000549316406 -103 callsubr
        </CharString>
        <CharString name="Sacute">
          -147 -30 callsubr
          32 callgsubr
          499 1659.990005493164 rmoveto
          71.99000549316406 -71 124 -51 callgsubr
          180 callsubr
          -36 rlinecurve
          -363.00999450683594 -1586 -103 callsubr
        </CharString>
        <CharString name="Scaron">
          -147 -30 callsubr
          129.02000427246094 113 32 callgsubr
          276.99000549316406 241 callgsubr
          180 callgsubr
          hlineto
          128 callgsubr
          rlineto
          -141 -1862 -103 callsubr
        </CharString>
        <CharString name="Scedilla">
          -147 -463.99000549316406 -53 callgsubr
          329.00999450683594 134.97999572753906 1285.990005493164 -61 callgsubr
          hstem
          139.97999572753906 162.00999450683594 244.00001525878906 -7 callsubr
          231.99998474121094 166 vstem
          1067.990005493164 384.97999572753906 rmoveto
          45 callsubr
          vhcurveto
          -216 104.02000427246094 -121 70.99000549316406 171 vvcurveto
          152 -1 167 69 162 hhcurveto
          157 95.00999450683594 -34 -48 74 hvcurveto
          35 133 rlineto
          36 -54 -114 46 -192 hhcurveto
          -231 -260.00999450683594 -12 callsubr
          -280 -225 200 -140.99000549316406 198 -90.00999450683594 hvcurveto
          213 -97 151 -69 -174 vvcurveto
          -168.02000427246094 -133.97999572753906 -40 callgsubr
          52 -35 161 -48.97999572753906 186 -6 rlinecurve
          11 -37 247 callgsubr
          -51 1 callgsubr
          -76 rrcurveto
          -118 -6 176 callgsubr
          -47 -80 hhcurveto
          -36.99000549316406 -36 59 callgsubr
          5 91 -11 75 -24.990005493164062 53 rrcurveto
          256 19.979995727539062 173 132.02000427246094 245.99000549316406 vvcurveto
          endchar
        </CharString>
        <CharString name="Scircumflex">
          -147 -30 callsubr
          324.00999450683594 120.00999450683594 32 callgsubr
          251 callgsubr
          121 callgsubr
          230 callgsubr
          244 49 callgsubr
          -279.97999572753906 296 rlineto
          -149 hlineto
          -277 -298 rlineto
          -130 -1610 -103 callsubr
        </CharString>
        <CharString name="Scommaaccent">
          -140 -30 callsubr
          hstem
          143.99000549316406 161.99000549316406 247.99998474121094 143 209.010009765625 -28 callsubr
          vstem
          139.97999572753906 73.99000549316406 rmoveto
          -37 55 177 -52.97999572753906 199.99000549316406 hhcurveto
          294.00999450683594 -78 callsubr
          132.97000122070312 268 45 callsubr
          hvcurveto
          -216 104.02000427246094 -121 70.99000549316406 171 vvcurveto
          152 -1 167 69 162.02000427246094 hhcurveto
          157 -10 callsubr
          -34 -48 52 callsubr
          hvcurveto
          34.970001220703125 133 rlineto
          36 -53.99000549316406 110 callgsubr
          46 -192 hhcurveto
          -231 -260 -12 callsubr
          -280 -225 199.99000549316406 -140.99000549316406 198 -90.00999450683594 hvcurveto
          213.02000427246094 -97 151 -69 -174 vvcurveto
          -168.02000427246094 -134 -40 callgsubr
          rlineto
          361 -601.9799957275391 rmoveto
          58 -32.02000427246094 rlineto
          55 -67 callsubr
          34 196 callsubr
          191 callsubr
          -65 -80 callgsubr
          -23 callsubr
          endchar
        </CharString>
        <CharString name="T">
          -22 122 callsubr
          240 callsubr
          124 callgsubr
          122 callsubr
          -25 callsubr
          endchar
        </CharString>
        <CharString name="Tbar">
          -22 665.9799957275391 112 613 240 callsubr
          1221.979995727539 122 callsubr
          rmoveto
          131 -1159.990005493164 -131 490.99000549316406 -612.9900054931641 -298.99000549316406 -112 298.99000549316406 -665.9900054931641 171 665.9900054931641 301 112 -301 612.9900054931641 498 vlineto
          endchar
        </CharString>
        <CharString name="Tcaron">
          -22 122 callsubr
          131 145.010009765625 113 hstem
          124 callgsubr
          171 vstem
          292.97999572753906 -76 callsubr
          -244.02000427246094 202 -97 -46 rlineto
          260 -545.0099945068359 -25 callsubr
          endchar
        </CharString>
        <CharString name="Thorn">
          -32 0 291.97999572753906 956 274 88 callgsubr
          374.99000549316406 hmoveto
          -73 callsubr
          -169 243 callgsubr
          vlineto
          -13 304.97999572753906 rmoveto
          126 vlineto
          -10 69 210 callsubr
          -6 -33 callsubr
          hhcurveto
          245 171 90.00999450683594 285 234 -136 -57 callgsubr
          -267 -5 hvcurveto
          -77 -2 -111.99000549316406 -10 91 callgsubr
          -12 101 callsubr
          125.00999450683594 rcurveline
          -60 callgsubr
          95 180 callgsubr
          19 99 callgsubr
          hhcurveto
          320 197 -139 -317.00999450683594 -331 -215 -169 -353.00999450683594 -104.97999572753906 -108.02000427246094 11 2 -42 hvcurveto
          endchar
        </CharString>
        <CharString name="U">
          -40 callsubr
          hstem
          -58 callgsubr
          vstem
          -83 callgsubr
          643.9900054931641 -104 callsubr
        </CharString>
        <CharString name="Uacute">
          -40 callsubr
          hstem
          -58 callgsubr
          vstem
          628.9799957275391 221 callgsubr
          224 callgsubr
          -51 callgsubr
          82 callgsubr
          -36 rlinecurve
          -458 -1016 -104 callsubr
        </CharString>
        <CharString name="Ubreve">
          -40 callsubr
          1524.990005493164 132 hstem
          -58 callgsubr
          vstem
          410.99000549316406 55 callgsubr
          224 hhcurveto
          94 callsubr
          -190 4 callgsubr
          -240 -1322.990005493164 -104 callsubr
        </CharString>
        <CharString name="Ucircumflex">
          -40 callsubr
          1744.990005493164 120.00999450683594 hstem
          -58 callgsubr
          vstem
          395.97999572753906 121 callgsubr
          104.02000427246094 -45 248 222.99000549316406 0 callgsubr
          rlineto
          -225 -1040 -104 callsubr
        </CharString>
        <CharString name="Udieresis">
          -40 callsubr
          1572.990005493164 161 callsubr
          hstemhm
          -27 callgsubr
          56.99998474121094 225 254 177 callgsubr
          35.00999450683594 -50 callsubr
          hintmask 00000000
          hintmask 11111100
          395.97999572753906 1797.979995727539 rmoveto
          -54 callgsubr
          57.02000427246094 245 callsubr
          56 46 77 65 -33 -85 callsubr
          -70.99000549316406 91 callgsubr
          -16 callgsubr
          131 callsubr
          43.99000549316406 -41 callgsubr
          -60 98 callgsubr
          hintmask 10100100
          -704 -1153.990005493164 -104 callsubr
        </CharString>
        <CharString name="Ugrave">
          -40 callsubr
          hstem
          -58 callgsubr
          vstem
          797 140 callsubr
          70.99000549316406 71 -45 36 -262 234 -40 167 callsubr
          -626.0099945068359 -944.9900054931641 -104 callsubr
        </CharString>
        <CharString name="Uhungarumlaut">
          -40 callsubr
          hstem
          -58 callgsubr
          vstem
          402.97999572753906 1692 rmoveto
          95.00999450683594 84 callsubr
          467.00999450683594 54 callgsubr
          -699 -1048 -104 callsubr
        </CharString>
        <CharString name="Umacron">
          -40 callsubr
          1626.000015258789 124 171 callsubr
          139.99998474121094 543 114 158 callsubr
          478.99000549316406 1867 43 callsubr
          -308 -1223 -104 callsubr
        </CharString>
        <CharString name="Uogonek">
          173 158 callgsubr
          132.97999572753906 171 callsubr
          248.99998474121094 165 383 158 callsubr
          1135.979995727539 57 callsubr
          -837 vlineto
          -437 -146 -131 -240.99000549316406 -257 -153 125.00999450683594 442 vhcurveto
          1 839 rlineto
          -169 -879 hlineto
          -428.00999450683594 -1 172.02000427246094 -231.97000122070312 402 hhcurveto
          16 99 callsubr
          0 1 15.020004272460938 hvcurveto
          -101.00999450683594 222 callgsubr
          -103 -120 -60 callgsubr
          122 callgsubr
          rrcurveto
          -136 1 104 -70 137 hhcurveto
          112 callgsubr
          210 callgsubr
          21 41 53.99000549316406 hvcurveto
          131 callgsubr
          vlineto
          -52.99000549316406 -25 -58 -15.009994506835938 -52.02000427246094 -69 callgsubr
          rrcurveto
          195 callgsubr
          -65 30.990005493164062 93 -1 hvcurveto
          -2 -14 callgsubr
          99 112 -14 callgsubr
          77.99000549316406 rrcurveto
          239 70.99000549316406 -53 callgsubr
          212 351 vvcurveto
          877 -168 vlineto
          endchar
        </CharString>
        <CharString name="Uring">
          -40 callsubr
          1442.000015258789 9 callgsubr
          321.00999450683594 -10 callsubr
          171 callsubr
          98.99998474121094 119 382 118 79 158 callsubr
          437.99000549316406 1821 rmoveto
          -162.02000427246094 -87 callsubr
          -53 callgsubr
          -99.99000549316406 190.02000427246094 hhcurveto
          163.99000549316406 147 76.99000549316406 183 254 callgsubr
          87.97999572753906 193 callsubr
          hhcurveto
          -151 -157 -26 callgsubr
          -184 -3 hvcurveto
          501 -3 rmoveto
          -118 -86 -45 123 callsubr
          1 vhcurveto
          -42 callgsubr
          2 -70 62 1 101 170 callgsubr
          -768 -1174 -104 callsubr
        </CharString>
        <CharString name="Utilde">
          -40 callsubr
          1550.000015258789 127 27 103 callgsubr
          hstemhm
          -58 callgsubr
          hintmask 10111000
          337.97999572753906 237 callgsubr
          66 -54 rlineto
          46 38 -33 callsubr
          62 80 hhcurveto
          hintmask 11111000
          123 21 callgsubr
          hintmask 10111000
          -121.02000427246094 255 callgsubr
          -107 -118 -81 -12 callsubr
          -42 hvcurveto
          -167 -1123 -104 callsubr
        </CharString>
        <CharString name="V">
          30 -96 callsubr
          1537.979995727539 hstem
          30.990005493164062 1270 vstem
          30.990005493164062 57 callsubr
          574.0099945068359 -1537.979995727539 rlineto
          208 callgsubr
          hlineto
          554 1537.979995727539 rlineto
          -178.02000427246094 hlineto
          -369.99000549316406 -1085.009994506836 -76 -244 -76 244 -391 1085.009994506836 rlineto
          -179 hlineto
          endchar
        </CharString>
        <CharString name="W">
          608 -96 callsubr
          1537.979995727539 190 callsubr
          1706.990005493164 1521.990005493164 -98 callgsubr
        </CharString>
        <CharString name="Wacute">
          152 callgsubr
          1293.990005493164 25 callsubr
          71.99000549316406 -71 124 -23 callgsubr
          413 -351 -98 callgsubr
        </CharString>
        <CharString name="Wcircumflex">
          608 118 callsubr
          123 callgsubr
          1846 vstem
          954.9799957275391 87 callgsubr
          110.02000427246094 169 callgsubr
          230 callgsubr
          rlineto
          752 -339.99000549316406 -98 callgsubr
        </CharString>
        <CharString name="Wdieresis">
          608 1689.979995727539 161 callsubr
          hstem
          602.9900054931641 118 callgsubr
          vstem
          706.9900054931641 242 callsubr
          56 46 77 65 -33 -85 callsubr
          -71 -61.99000549316406 -59 38 callsubr
          -54 callgsubr
          57 hvcurveto
          479.99000549316406 hmoveto
          64 57.02000427246094 46 77 65 -33.02000427246094 151 callsubr
          -69.97999572753906 46.99000549316406 -38.02000427246094 58 hvcurveto
          520.0099945068359 -168 -98 callgsubr
        </CharString>
        <CharString name="Wgrave">
          152 callgsubr
          1003.9900054931641 219 callsubr
          82 callgsubr
          36 -261.97999572753906 234 -40.02000427246094 167 callsubr
          703 -26 callgsubr
          -98 callgsubr
        </CharString>
        <CharString name="X">
          29 0 1522.990005493164 hstem
          72.99000549316406 1183.979995727539 vstem
          762.9799957275391 757.9900054931641 rmoveto
          480.00999450683594 764 rlineto
          -183 hlineto
          -282.99000549316406 -464 -104 -176 123 callsubr
          176 -295 465 -191 -1 484 -740 -490 -781.9900054931641 rlineto
          183 hlineto
          308.97999572753906 502.99000549316406 91.00999450683594 152 94 -152 314 -502.99000549316406 rlineto
          192.99000549316406 hlineto
          -494 757.9900054931641 rlineto
          endchar
        </CharString>
        <CharString name="Y">
          -52 0 -73 callsubr
          hstem
          245 callgsubr
          172 vstem
          1218.990005493164 1521.990005493164 -77 callgsubr
          10 callgsubr
          174 callsubr
        </CharString>
        <CharString name="Yacute">
          198 callsubr
          984.9900054931641 25 callsubr
          72 130 callgsubr
          234 -351 -77 callgsubr
          10 callgsubr
          174 callsubr
        </CharString>
        <CharString name="Ycircumflex">
          -52 118 callsubr
          245 callgsubr
          172 vstem
          645.9799957275391 151 callgsubr
          rmoveto
          244.02000427246094 48 callgsubr
          -149 hlineto
          226 callsubr
          104 callsubr
          573.0099945068359 -339.99000549316406 -77 callgsubr
          10 callgsubr
          174 callsubr
        </CharString>
        <CharString name="Ydieresis">
          -52 1689.979995727539 161 callsubr
          hstemhm
          293.99000549316406 110 callsubr
          28.999984741210938 172 53.010009765625 177 callgsubr
          hintmask 00000000
          hintmask 11110000
          397.99000549316406 242 callsubr
          -59 callgsubr
          216 callgsubr
          -71 -62 73 callsubr
          -18 callgsubr
          75 callgsubr
          -50 -74.00999450683594 67 callgsubr
          hvcurveto
          341 -168 -77 callgsubr
          hintmask 10100000
          10 callgsubr
          hintmask 11110000
          174 callsubr
        </CharString>
        <CharString name="Ygrave">
          198 callsubr
          694.9900054931641 219 callsubr
          -45 224 callsubr
          -40.02000427246094 45 rlinecurve
          -110.97999572753906 122 callgsubr
          93.99000549316406 -99 182 -129 111 -56 rlinecurve
          524 -26 callgsubr
          -77 callgsubr
          10 callgsubr
          174 callsubr
        </CharString>
        <CharString name="Z">
          79 callgsubr
          hstem
          101 callgsubr
          1114 vstem
          101 callgsubr
          -10 callgsubr
          -89 callsubr
          endchar
        </CharString>
        <CharString name="Zacute">
          79 callgsubr
          hstem
          101 callgsubr
          1114 vstem
          566.9900054931641 -71 callsubr
          -461 -1594 -89 callsubr
          endchar
        </CharString>
        <CharString name="Zcaron">
          79 callgsubr
          145.010009765625 113 hstem
          101 callgsubr
          1114 vstem
          344.99000549316406 -76 callsubr
          -244 202 248 callgsubr
          -46 rlineto
          -239 -1870 -89 callsubr
          endchar
        </CharString>
        <CharString name="Zdotaccent">
          79 callgsubr
          238 callsubr
          572.9799957275391 227 vstem
          572.9900054931641 -31 callgsubr
          -467 -1735 -89 callsubr
          endchar
        </CharString>
        <CharString name="a">
          -91 callgsubr
          56 callsubr
          577.9900054931641 1157 -107 callgsubr
        </CharString>
        <CharString name="aacute">
          -91 callgsubr
          56 callsubr
          918 1677.990005493164 237 callsubr
          103 -103 -71 callgsubr
          76 callgsubr
          101 rlinecurve
          -340.00999450683594 -520.9900054931641 -107 callgsubr
        </CharString>
        <CharString name="abreve">
          -91 callgsubr
          3 callgsubr
          130 148 callgsubr
          -31 125 callsubr
          439.00999450683594 -28 callsubr
          -160.99000549316406 -32 callgsubr
          hintmask 00000000
          hintmask 11110101
          581.9799957275391 170 callsubr
          77 callgsubr
          hlineto
          90 callsubr
          -31.009994506835938 -180 -192 -195.99000549316406 -24 89 callgsubr
          176 callsubr
          hlineto
          236 callgsubr
          128.99000549316406 -181 221 hhcurveto
          hintmask 11111010
          -4 91 callsubr
          -107 callgsubr
        </CharString>
        <CharString name="acircumflex">
          -91 callgsubr
          408.00001525878906 127 56 callsubr
          581.9799957275391 1565 rmoveto
          263 -24 callgsubr
          97 callgsubr
          rlineto
          -4 -408 -107 callgsubr
        </CharString>
        <CharString name="acute">
          -744 1314.9700012207031 466 hstem
          14 callsubr
          252 callgsubr
          vstem
          14 callsubr
          1382.990005493164 rmoveto
          86 -88 callsubr
          68 101 rlinecurve
          59 callsubr
          103 -103 126 callsubr
          endchar
        </CharString>
        <CharString name="acute.cap">
          -737 1588.979995727539 386 hstem
          -59 callgsubr
          457.99000549316406 vstem
          -59 callgsubr
          -71 callsubr
          endchar
        </CharString>
        <CharString name="adieresis">
          -91 callgsubr
          251.010009765625 110 callsubr
          148 callgsubr
          -27 217 234.989990234375 216 -114.989990234375 173 callgsubr
          hintmask 11110110
          -20 callsubr
          hintmask 11111001
          -221 -251 -107 callgsubr
        </CharString>
        <CharString name="ae">
          -5 callgsubr
          1712.990005493164 124 callgsubr
          -97 callsubr
        </CharString>
        <CharString name="aeacute">
          -5 callgsubr
          1256 1677.990005493164 237 callsubr
          103 149 callsubr
          -71 callgsubr
          76 callgsubr
          101 rlinecurve
          252 callgsubr
          -1125 -97 callsubr
        </CharString>
        <CharString name="agrave">
          -91 callgsubr
          56 callsubr
          602.9900054931641 31 callgsubr
          -101 -66 callsubr
          rlinecurve
          -120 -103 80 146 callgsubr
          -25 -157.97999572753906 -107 callgsubr
        </CharString>
        <CharString name="amacron">
          -91 callgsubr
          295.00001525878906 124 148 callgsubr
          37 543 -54 173 callgsubr
          hintmask 11111100
          855 1576 rmoveto
          -543 -124 543 124 hlineto
          hintmask 11111010
          -277.00999450683594 -419 -107 callgsubr
        </CharString>
        <CharString name="ampersand">
          231 -96 callsubr
          162 callsubr
          149 callsubr
          121.97000122070312 1321 119 hstemhm
          180 callgsubr
          83 callsubr
          -7.0000152587890625 155 477.010009765625 -43 callsubr
          137.99998474121094 144.00999450683594 hintmask 00000000
          hintmask 10101110
          1203 157 rmoveto
          -77 callsubr
          86 50 119.99000549316406 151 vvcurveto
          100 -23 80 -12 34 vhcurveto
          -147 hlineto
          12 -29 163 callgsubr
          -86 -99 vvcurveto
          -123 -40 195 callgsubr
          -69 111 callgsubr
          vhcurveto
          -110 223 callgsubr
          -206 262 -87 -53 callgsubr
          rrcurveto
          217 100 157 -66 callsubr
          242 vvcurveto
          132 callsubr
          -136.99000549316406 160 -235 -243 -160 -131 -217.99000549316406 -158 -14 callgsubr
          -137 89.99000549316406 -116 vhcurveto
          hintmask 01110110
          -179 164 callgsubr
          -157 -53 callsubr
          -203 vvcurveto
          -261 243 -140.97999572753906 361 115 128 36.97999572753906 47 131 callgsubr
          vhcurveto
          hintmask 10110110
          -56 76 69 -27.970001220703125 -10 callsubr
          hhcurveto
          53 32 7 7.9900054931640625 28 hvcurveto
          88 vlineto
          hintmask 10101110
          -90.99000549316406 -1 -68.02000427246094 99 callsubr
          164 callgsubr
          56 rrcurveto
          -506 1269.990005493164 rmoveto
          15 callsubr
          125 callgsubr
          -110 -105 -192 -129 8 callsubr
          -175 211 callsubr
          hvcurveto
          -103 139 -70 75 146 vvcurveto
          157 60 callsubr
          70 136 vhcurveto
          hintmask 01110110
          46 -1321 rmoveto
          -310 -128 133 151 143 118 89 177 callsubr
          245 callsubr
          hvcurveto
          53 callsubr
          -145.99000549316406 187 -242 129 -139 rrcurveto
          -34 -78 -79 -20.009994506835938 -83 hhcurveto
          endchar
        </CharString>
        <CharString name="aogonek">
          -156 158 callgsubr
          -50 callgsubr
          465.99000549316406 -57 callgsubr
          347.99998474121094 127.00999450683594 148 callgsubr
          302.989990234375 164 59.010009765625 173 callgsubr
          hintmask 11111110
          891.9900054931641 234 callgsubr
          175 callgsubr
          -65 163 callgsubr
          93 -1 hvcurveto
          -1 99 callgsubr
          125.00999450683594 89.99000549316406 87 55 rrcurveto
          13.990005493164062 hlineto
          hintmask 11111010
          150 callsubr
          vlineto
          49 callsubr
          -29 callsubr
          vhcurveto
          41 -110 rlineto
          43 60 158.99000549316406 53.99000549316406 116.02000427246094 hhcurveto
          169.99000549316406 -14 callgsubr
          -57 callsubr
          -184 hvcurveto
          -132.02000427246094 vlineto
          -53 callsubr
          -192 -17 -50 -134 hvcurveto
          -158.99000549316406 -59 -87 -105 -150 vvcurveto
          -198 145 -118.97999572753906 202 162 130 65.97999572753906 -59 callgsubr
          62 vhcurveto
          -41.97999572753906 vlineto
          -35 7 -20 13 -11 vhcurveto
          hintmask 11111110
          -113.00999450683594 -57 -33 callgsubr
          -120 -60 callgsubr
          -133 rrcurveto
          -136 108.00999450683594 -64 133 112 callgsubr
          -14 callgsubr
          21 41 54 vhcurveto
          131 callgsubr
          vlineto
          -53 -80 callgsubr
          176 callgsubr
          -14 -51 -69 callgsubr
          rrcurveto
          hintmask 11111010
          -385.99000549316406 507.97999572753906 rmoveto
          -164 -67.02000427246094 85 -45 callsubr
          100.99000549316406 59 64 114.02000427246094 43 hvcurveto
          40 9 callgsubr
          174 13 82 hhcurveto
          -367 vlineto
          -28 -80 callgsubr
          -125.99000549316406 -71 -143 hhcurveto
          endchar
        </CharString>
        <CharString name="approxequal">
          125 306.99000549316406 -43 callsubr
          29.999984741210938 142 141 143 30.010009765625 208 callgsubr
          hstemhm
          215.97999572753906 993.0099945068359 hintmask 01011000
          215.97999572753906 878.9799957275391 rmoveto
          88 -69 rlineto
          65 46 65 61 210 callsubr
          hhcurveto
          hintmask 01111000
          156 34 -173.02000427246094 40 callgsubr
          -65.99000549316406 103 callsubr
          -121 -78 -34.02000427246094 hvcurveto
          -455.99000549316406 vmoveto
          88 -69 rlineto
          64.97999572753906 46 65 61 210 callsubr
          hhcurveto
          hintmask 11011000
          156 34 -172.99000549316406 40 callgsubr
          -66.00999450683594 103 callsubr
          -121.02000427246094 164 callgsubr
          -34.02000427246094 hvcurveto
          endchar
        </CharString>
        <CharString name="aring">
          -91 callgsubr
          175.00001525878906 9 callgsubr
          333.989990234375 95 148 callgsubr
          -2 -53 callgsubr
          381.99998474121094 118 -90.989990234375 -28 callsubr
          hintmask 1111101010000000
          578.9900054931641 1332 rmoveto
          hintmask 1111101100000000
          164 147 112 callgsubr
          184.02000427246094 -60 callgsubr
          hvcurveto
          74 callsubr
          1 59 callsubr
          94 -189 116 callsubr
          -87 callsubr
          hvcurveto
          hintmask 1111101010000000
          -162 -3 99 callgsubr
          8 callsubr
          190 hhcurveto
          -187 268.97999572753906 rmoveto
          251 callsubr
          1 9 callgsubr
          249 callsubr
          93 hhcurveto
          hintmask 1111101100000000
          182 callsubr
          8 callgsubr
          vhcurveto
          hintmask 1111101010000000
          -53 callsubr
          2 -70 68 1 -77 callsubr
          rrcurveto
          186 -443.99000549316406 rmoveto
          -29 callsubr
          hvcurveto
          41 -110 rlineto
          43 60 158.99000549316406 53.99000549316406 116.02000427246094 hhcurveto
          169.99000549316406 -14 callgsubr
          -57 callsubr
          -184 hvcurveto
          -132.02000427246094 vlineto
          -53 callsubr
          -192 -17 -50 -134 hvcurveto
          hintmask 1111110010000000
          -158.99000549316406 -59 -87 -105 -150 vvcurveto
          -198 145 -118.97999572753906 202 162 130 65.97999572753906 -59 callgsubr
          62 vhcurveto
          -41.97999572753906 vlineto
          -75 30 -5 58 vhcurveto
          76 callsubr
          150 callsubr
          hlineto
          hintmask 1111101010000000
          49 callsubr
          vhcurveto
          -83 callsubr
          -1048 rmoveto
          hintmask 1111110010000000
          -164 -67.02000427246094 85 -45 callsubr
          100.99000549316406 59 64 114.02000427246094 43 hvcurveto
          40 9 callgsubr
          174 13 82 hhcurveto
          -367 vlineto
          hintmask 1111101010000000
          -28 -80 callgsubr
          -125.99000549316406 -71 -143 hhcurveto
          endchar
        </CharString>
        <CharString name="asciicircum">
          62 508.97999572753906 1021.9900054931641 hstem
          188.99000549316406 985 vstem
          1174 508.99000549316406 rmoveto
          -417.02000427246094 1022 rlineto
          163 callsubr
          hlineto
          -414 -1022 rlineto
          161 hlineto
          331 839 333 -839 rlineto
          160 hlineto
          endchar
        </CharString>
        <CharString name="asciitilde">
          137 659.9799957275391 -43 callsubr
          30.009994506835938 142 hstemhm
          221.97999572753906 993.0099945068359 hintmask 01100000
          221.97999572753906 775.9900054931641 rmoveto
          88 -69 rlineto
          65 46 65 209 callgsubr
          210 callsubr
          hhcurveto
          hintmask 11100000
          156 34 -173 40 callgsubr
          -66 -47 -70.99000549316406 -59 -102.00999450683594 hhcurveto
          hintmask 01100000
          -153 -40 172.02000427246094 53 callgsubr
          hhcurveto
          -157 -116 -121 -78.00999450683594 -34.02000427246094 hvcurveto
          endchar
        </CharString>
        <CharString name="asterisk">
          -75 647.9799957275391 1010.0099945068359 hstemhm
          541.9799957275391 134 -127 -61 callgsubr
          hintmask 00000000
          hintmask 10100000
          553.9799957275391 928.9900054931641 rmoveto
          -10 -281 146 1 -16 280 -1 6 -80 callgsubr
          -11 callgsubr
          -72 callgsubr
          5 rlinecurve
          133 -104 51 callsubr
          -150 52 callsubr
          129 -250 128 -157 57 156 61 246.99000549316406 133 -83 callsubr
          224 callgsubr
          rlineto
          hintmask 11000000
          -238 -152 -5 192 callgsubr
          134 callsubr
          -100.99000549316406 -87 callsubr
          -3 rlinecurve
          163 callgsubr
          165 10 281 rlineto
          -145.99000549316406 hlineto
          13.990005493164062 -283.00999450683594 rlineto
          2 -6 27 163 callsubr
          192 callgsubr
          vvcurveto
          -130.99000549316406 104 -237.02000427246094 151.02000427246094 -70.99000549316406 -126.00999450683594 248 2 callsubr
          6 -1 148 -54 4 -2 rlinecurve
          -157 75 callgsubr
          -246 -134 73.00999450683594 -125.00999450683594 rlineto
          hintmask 10100000
          236 152 128 110 -25.009994506835938 -167 rlineto
          endchar
        </CharString>
        <CharString name="at">
          917 -464.99000549316406 179 callgsubr
          350 135 -131.00999450683594 122 831.989990234375 115 361 112 hstemhm
          223.99000549316406 135 292.989990234375 143 530.010009765625 111.21000671386719 426.7799835205078 136 hintmask 1011111110000000
          1309 182.99000549316406 rmoveto
          -111 5.9799957275390625 35 -70 93 hhcurveto
          271.02000427246094 285 299 534 451.99000549316406 -305.00999450683594 257 -441 -572 -457 -438.99000549316406 -680.0200042724609 -602.9700012207031 370 -287 480.00999450683594 187 186 -74 callgsubr
          57.02000427246094 85 hvcurveto
          -30 100 rlineto
          -37 -64.99000549316406 -140 194 callsubr
          -208.02000427246094 hhcurveto
          -388 -342 217 574.9900054931641 605 406 386.99000549316406 459 343 296 208 callsubr
          -488 -383.02000427246094 -200.99000549316406 -301 -181 -53 -2 93 214 28.020004272460938 hvcurveto
          27 203.02000427246094 66 275.99000549316406 35.99000549316406 130 -133 -26 rcurveline
          39 -63 109 callgsubr
          17.990005493164062 -92.02000427246094 hhcurveto
          -379.99000549316406 -167.02000427246094 -355.99000549316406 -280 -6 hvcurveto
          hintmask 1101111110000000
          -299.00999450683594 -6 152 -137.99000549316406 135 hhcurveto
          151 143 201.99000549316406 205 98 hvcurveto
          hintmask 1011111110000000
          -17 -104 -1 -82 2 -36 rrcurveto
          hintmask 1101111110000000
          -343.02000427246094 111 callsubr
          rmoveto
          -112.99000549316406 -62 127 204 4 hvcurveto
          227 5 135 15 callgsubr
          255 hhcurveto
          71 94 -22 -49 36.99000549316406 hvcurveto
          -244.97999572753906 -54 callsubr
          -242 -507 -146 hhcurveto
          endchar
        </CharString>
        <CharString name="atilde">
          -91 callgsubr
          -78 callsubr
          29 callgsubr
          18 callgsubr
          hintmask 00000000
          hintmask 11111110
          426.99000549316406 1512 rmoveto
          hintmask 11110110
          70 callsubr
          -60 -59 -93.99000549316406 hhcurveto
          hintmask 11111110
          -122.02000427246094 -13.990005493164062 148 -168 hhcurveto
          -119 88 callsubr
          227 callgsubr
          -53.99000549316406 rlineto
          -85 callsubr
          44 callgsubr
          60 86 hhcurveto
          hintmask 11110110
          151 -355 -107 callgsubr
        </CharString>
        <CharString name="b">
          -57 -17 1677.979995727539 hstem
          92 callsubr
          12 callsubr
          92 callsubr
          64 rmoveto
          167 28 callgsubr
          -167 -1596.990005493164 vlineto
          0 vmoveto
          -63 callgsubr
        </CharString>
        <CharString name="backslash">
          168 callgsubr
          216.99000549316406 1599 rmoveto
          -151 hlineto
          571 -1962 rlineto
          150 hlineto
          -570 1962 rlineto
          endchar
        </CharString>
        <CharString name="bar">
          -459 -187 1967 181 callsubr
          -1967 154 1967 -154 vlineto
          endchar
        </CharString>
        <CharString name="braceleft">
          142 callgsubr
          368.97999572753906 159 vstem
          527.9900054931641 971.9799957275391 rmoveto
          657.0200042724609 295 92 vlineto
          161 callgsubr
          -81 -107.00999450683594 11 -109 hhcurveto
          -123 -34 -45 -152 hvcurveto
          -575 vlineto
          -49 77 callgsubr
          -41 -137 -45 vhcurveto
          -110 vlineto
          128 -37 123 -56 -46 vvcurveto
          -583 vlineto
          -151.97999572753906 35 -45 122 109 210 callsubr
          7.9900054931640625 20.009994506835938 86 vhcurveto
          100 callsubr
          -295 663.9799957275391 vlineto
          29 -12 25.009994506835938 -22 22 vhcurveto
          -34.02000427246094 36 -109 56 -68 28 68 30 107 52 33 123 callgsubr
          rrcurveto
          25 21.009994506835938 12 163 callgsubr
          33 vvcurveto
          endchar
        </CharString>
        <CharString name="braceright">
          142 callgsubr
          457.99000549316406 158.99000549316406 vstem
          616.9799957275391 968.9900054931641 rmoveto
          575 vlineto
          152 -34 45 -123 -109 8 callsubr
          -11 -8.990005493164062 -81.02000427246094 vhcurveto
          -92 295.02000427246094 -657.0200042724609 vlineto
          -33 12 -25.990005493164062 24.990005493164062 -21.009994506835938 vhcurveto
          33 -57 callsubr
          -57 callgsubr
          -52 76 callgsubr
          -30 -68.02000427246094 -28 -109 -56 -34 -36 rrcurveto
          -22 -22 -12 -25.009994506835938 -29 vvcurveto
          -663.9799957275391 -295.02000427246094 -84.99000549316406 vlineto
          -20.009994506835938 86.02000427246094 -77 callsubr
          -7.9900054931640625 109 hhcurveto
          122 35 45 151.97999572753906 hvcurveto
          583 vlineto
          46 123 56 128 37 vhcurveto
          110 vlineto
          -136.99000549316406 45 110 callgsubr
          41 49 vvcurveto
          endchar
        </CharString>
        <CharString name="bracketleft">
          166 callgsubr
          177 callgsubr
          159.99000549316406 vstem
          226 1543.990005493164 rmoveto
          -1542 vlineto
          -151.97999572753906 28 -41 122 104 117 7 83 callgsubr
          126 callgsubr
          vhcurveto
          87 vlineto
          -302 2 rlineto
          1708.990005493164 302 89.99000549316406 vlineto
          -36 callsubr
          -90.99000549316406 -117 11 -104 hhcurveto
          -122 -28 -41 -152 hvcurveto
          endchar
        </CharString>
        <CharString name="bracketright">
          166 callgsubr
          454.97999572753906 160 vstem
          614.9900054931641 1543.990005493164 rmoveto
          152 -28 41 -122 -104.02000427246094 -116.99000549316406 -11 162 callgsubr
          -91.00999450683594 vhcurveto
          109 callgsubr
          302 -1708.990005493164 vlineto
          -302 -2 rlineto
          -87 vlineto
          -12.990005493164062 91.00999450683594 116.99000549316406 -7 104.02000427246094 hhcurveto
          122 28 41 151.97999572753906 hvcurveto
          1542 vlineto
          endchar
        </CharString>
        <CharString name="breve">
          -526 1334.979995727539 130 hstem
          -74 callgsubr
          118 443.97999572753906 114.00999450683594 vstem
          -74 callgsubr
          1693.979995727539 rmoveto
          86 callsubr
          35 callgsubr
          endchar
        </CharString>
        <CharString name="breve.cap">
          -529 1641.979995727539 132 hstem
          48.30999755859375 676.1600036621094 vstem
          -74 callgsubr
          55 callgsubr
          224.02000427246094 hhcurveto
          212 177 callsubr
          152 173 -12 hvcurveto
          77 callgsubr
          hlineto
          195 callsubr
          -1 -32 -146 -189.99000549316406 hhcurveto
          -194 -24.990005493164062 -43 callsubr
          50 -2 hvcurveto
          -117 hlineto
          endchar
        </CharString>
        <CharString name="brokenbar">
          -459 -185.99000549316406 1965.990005493164 181 callsubr
          -834 154 834 -154 vlineto
          -1135 vmoveto
          -830.9900054931641 154 830.9900054931641 -154 vlineto
          endchar
        </CharString>
        <CharString name="bullet">
          -449 245 callgsubr
          353.99000549316406 hstem
          254.99000549316406 341.99000549316406 vstem
          255 723.9900054931641 rmoveto
          -95 -5 74 -81 94 hhcurveto
          94 81 81 99 4 hvcurveto
          98.02000427246094 5 -74 75.99000549316406 -94 hhcurveto
          -93 -81 164 callgsubr
          -100 -5 hvcurveto
          endchar
        </CharString>
        <CharString name="c">
          4 callsubr
          48 callsubr
          vstem
          643.9900054931641 246 callsubr
          -99 callgsubr
        </CharString>
        <CharString name="cacute">
          4 callsubr
          48 callsubr
          vstem
          494 1382.990005493164 rmoveto
          86 -88 callsubr
          76 callsubr
          101 rlinecurve
          59 callsubr
          107 callgsubr
          150 -227 -99 callgsubr
        </CharString>
        <CharString name="caron">
          -477 1300.990005493164 213 callgsubr
          145 178 callgsubr
          rmoveto
          192 callsubr
          -43 297 -346.99000549316406 rlineto
          149 hlineto
          291 345.99000549316406 124 callsubr
          44 -263 -263 -273.97999572753906 263 rlineto
          endchar
        </CharString>
        <CharString name="caron.cap">
          -539 178 callsubr
          113 hstem
          -74 callgsubr
          681 vstem
          -74 callgsubr
          -76 callsubr
          -244 202 -97 -46 rlineto
          endchar
        </CharString>
        <CharString name="caronvertical">
          -996 1036.979995727539 648 hstem
          115 206 callgsubr
          98 callsubr
          1062.990005493164 rmoveto
          112 callgsubr
          -80 callgsubr
          rlineto
          63.02000427246094 133 callgsubr
          56 156 176 vvcurveto
          103 -18 97 -42 38 vhcurveto
          128 callsubr
          -39.02000427246094 -67.02000427246094 -21 -63 vhcurveto
          7 -23 rlineto
          endchar
        </CharString>
        <CharString name="ccaron">
          4 callsubr
          165.989990234375 127 48 callsubr
          vstem
          343 159 callsubr
          248 callgsubr
          -5 callsubr
          43 callgsubr
          -263 -263 -273.97999572753906 263 rlineto
          301 -555.9900054931641 -99 callgsubr
        </CharString>
        <CharString name="ccedilla">
          -289 -463.99000549316406 -53 callgsubr
          330.00999450683594 -50 callgsubr
          916.9900054931641 129 48 callsubr
          269.00999450683594 124 vstem
          947 93 rmoveto
          -35 105 callsubr
          -57 callsubr
          -49 8 callsubr
          -47 -132.02000427246094 hhcurveto
          53 callgsubr
          -170 157 319 7.9900054931640625 hvcurveto
          298 8 172.02000427246094 143 186.97999572753906 121 callsubr
          94 -21 -41 56 hvcurveto
          29 132 rlineto
          26.990005493164062 -40 -103 32 -134 hhcurveto
          -348 -191.02000427246094 -258 -345 1 hvcurveto
          -297.97999572753906 151 -230 268 -35.97999572753906 vhcurveto
          12 -39 7 -51.02000427246094 -7 -78.99000549316406 rrcurveto
          217 callgsubr
          -12 -109 rlineto
          -16 23 76 callgsubr
          80 callgsubr
          5 89.99000549316406 -11 52 callsubr
          -24 53 132 6 117 249 callsubr
          67.02000427246094 61 rrcurveto
          endchar
        </CharString>
        <CharString name="ccircumflex">
          4 callsubr
          409 127 48 callsubr
          vstem
          244.97999572753906 187 callsubr
          191 callgsubr
          274 263 262.97999572753906 -263 164 callsubr
          -47 callsubr
          207 callgsubr
          -297 37 callsubr
          399.00999450683594 193 callsubr
          -99 callgsubr
        </CharString>
        <CharString name="cdotaccent">
          4 callsubr
          232 -20 callgsubr
          48 callsubr
          233.00999450683594 230 vstem
          500.97999572753906 1501.979995727539 rmoveto
          -71.99000549316406 49 -42 58 77 callsubr
          vhcurveto
          143 -345.99000549316406 -99 callgsubr
        </CharString>
        <CharString name="cedilla">
          -833 -463.99000549316406 -53 callgsubr
          hstem
          292.97999572753906 124 vstem
          59.99000549316406 -327 rmoveto
          212 callgsubr
          23 76 callgsubr
          80 callgsubr
          6 179 callgsubr
          -18 89 -39 50.99000549316406 -34.02000427246094 4 rcurveline
          -64 -4 19 -41 15.009994506835938 -57 162 callgsubr
          -103 rlinecurve
          217 callgsubr
          endchar
        </CharString>
        <CharString name="cent">
          -107 -14 124 916.9900054931641 128 hstemhm
          169.97999572753906 161.99000549316406 267 115 -70.97999572753906 114.5 hintmask 11101000
          1011 93 rmoveto
          -35 105 callsubr
          -57 callsubr
          -49 8 callsubr
          -47 -132.02000427246094 hhcurveto
          53 callgsubr
          -170 157 319 7.9900054931640625 hvcurveto
          298 8 172.02000427246094 143 186.97999572753906 121 callsubr
          94 -21 -41 56 hvcurveto
          29 132 -35 24 175 callgsubr
          27 -111 7 rlinecurve
          5 218 rlineto
          110 callgsubr
          hlineto
          -5.9799957275390625 -220.02000427246094 -305.00999450683594 -57 callsubr
          -166 -246 1 -322 rlinecurve
          hintmask 11110000
          -302.97999572753906 156 -233 275 -30 vhcurveto
          -4 -203 rlineto
          115 hlineto
          4 202 rlineto
          hintmask 11101000
          123 -36 callsubr
          109.02000427246094 39.970001220703125 63 134 callgsubr
          rrcurveto
          endchar
        </CharString>
        <CharString name="circumflex">
          -468 1564.990005493164 213 callgsubr
          47.97999572753906 187 callsubr
          97 callgsubr
          263 -24 callgsubr
          rlineto
          endchar
        </CharString>
        <CharString name="circumflex.cap">
          -497 118 callsubr
          -74 callgsubr
          706 vstem
          -74 callgsubr
          21 callsubr
          -149 hlineto
          -277 -298 rlineto
          endchar
        </CharString>
        <CharString name="colon">
          -700 -96 callsubr
          15 callgsubr
          558.9900054931641 15 callgsubr
          hstem
          92 callsubr
          233 vstem
          -3 callsubr
          -823.9900054931641 vmoveto
          -15 callgsubr
          68 -1 -54 callsubr
          100 callgsubr
          -72 hhcurveto
          -64 -59 71 callgsubr
          1 hvcurveto
          endchar
        </CharString>
        <CharString name="colonmonetary">
          20 -30 callgsubr
          hstemhm
          139 callgsubr
          235.00999450683594 88.99000549316406 31.999984741210938 90.5 55.510009765625 126 callgsubr
          32.49998474121094 126 callgsubr
          hintmask 11110100
          -57 callgsubr
          753.9900054931641 rmoveto
          -351.00999450683594 156 -263 260.02000427246094 -105.99000549316406 vhcurveto
          -80 callgsubr
          -387.99000549316406 rlineto
          90.00999450683594 hlineto
          23.979995727539062 359.97999572753906 55 -13.990005493164062 60 1 callgsubr
          98 callsubr
          -1 rlinecurve
          -22 -338 rlineto
          91 hlineto
          22 341 rlineto
          hintmask 11111110
          159 11 82 40 79 26.009994506835938 30 callgsubr
          rcurveline
          -46 -30 -114.02000427246094 -43 75 callsubr
          -12.990005493164062 112 callgsubr
          1267 rcurveline
          223 callgsubr
          -17 -59 callgsubr
          -31.009994506835938 33 -11 24 150 rcurveline
          -69 callsubr
          -36 callsubr
          111 callgsubr
          23.990005493164062 -111.99000549316406 14 18.990005493164062 288.00999450683594 rcurveline
          -91 hlineto
          -19 -279 rlineto
          0.9799957275390625 -27 -29 1 -32.02000427246094 hhcurveto
          -30.990005493164062 -30 -72 callgsubr
          192 callgsubr
          -30 hvcurveto
          19 283.00999450683594 rlineto
          -90.00999450683594 hlineto
          -19.990005493164062 -300.00999450683594 rlineto
          hintmask 11110100
          -295.00999450683594 -76 -219 -263.99000549316406 -421 vvcurveto
          690.0099945068359 -636 rmoveto
          -64 -59 11 20.009994506835938 -54 hvcurveto
          83 1241 rlineto
          247 callgsubr
          35 35.99000549316406 3 38 hhcurveto
          25 23 -1 -1 22 hvcurveto
          -85 -1280 rlineto
          -186.02000427246094 1246 rmoveto
          164 callgsubr
          -1171 rlineto
          -166 106 -92 211 256 vvcurveto
          313 131.02000427246094 207 204.97999572753906 78 vhcurveto
          endchar
        </CharString>
        <CharString name="comma">
          -700 -498.99000549316406 756.9799957275391 hstem
          306.99000549316406 158 vstem
          74 callsubr
          -409 rmoveto
          1 -6 callsubr
          56 -69 rlineto
          127 56 117 172 226 vvcurveto
          60 callsubr
          -40.02000427246094 96 callgsubr
          -68.02000427246094 -39.02000427246094 vhcurveto
          endchar
        </CharString>
        <CharString name="copyright">
          832 -10 callsubr
          99 287 119.99000549316406 730.0099945068359 119.99000549316406 282.99998474121094 200 callsubr
          314.00001525878906 180 callgsubr
          1044.009994506836 -62 callgsubr
          49 1257 rmoveto
          -316 -171.99000549316406 -210 -280 -256 169 -223.99000549316406 274.97999572753906 132.02000427246094 179 callgsubr
          41 -74 callgsubr
          61 hvcurveto
          -35 -14 callgsubr
          rlineto
          -30 -52 -88 -36 -111 hhcurveto
          -193 -123 149 221.99000549316406 211 251 callsubr
          148 -78 callsubr
          53 callsubr
          71 -32.02000427246094 -36 51 hvcurveto
          163 callgsubr
          124 rlineto
          25 -36 -75.99000549316406 39 -130 hhcurveto
          endchar
        </CharString>
        <CharString name="currency">
          229 309.97999572753906 125 632 125 hstem
          321.97999572753906 135 613.010009765625 -6 callgsubr
          vstem
          1205.990005493164 750.9799957275391 rmoveto
          210 callsubr
          -34 92 -57 74 vhcurveto
          203 203 -97 -14 callgsubr
          -205 -204 rlineto
          49 -72.00999450683594 -87 29 -94 hhcurveto
          -92 -86 -28.020004272460938 -47.99000549316406 -71 hvcurveto
          -203 204.99000549316406 -95 -98 200 -199.99000549316406 rlineto
          -59 -74.02000427246094 -35 227 callsubr
          124 callsubr
          vvcurveto
          -104 35 -94 60 -75 vhcurveto
          -201 -200.99000549316406 210 callgsubr
          -97 203 204.99000549316406 rlineto
          -47 71 100 callsubr
          -28 91 hhcurveto
          94 88 29 50.02000427246094 71 hvcurveto
          202 -203 -14 callgsubr
          -47 callgsubr
          -199 200 rlineto
          57 74 34 93 -77 callsubr
          vvcurveto
          -442 -315.97999572753906 rmoveto
          -169 -137.99000549316406 -43 callsubr
          173 174.02000427246094 137.99000549316406 208 callgsubr
          169 170 136 -33 callgsubr
          -174.02000427246094 -173 -136 -142.99000549316406 -170 hvcurveto
          endchar
        </CharString>
        <CharString name="d">
          183 callsubr
          hstem
          -77 callsubr
          171 618.989990234375 12 callsubr
          891.9900054931641 1664 rmoveto
          -478 vlineto
          -94 callgsubr
          1676 82 callsubr
          hlineto
          -618.9900054931641 -1108.009994506836 -92 callgsubr
        </CharString>
        <CharString name="dagger">
          -275 1147.979995727539 122.50999450683594 hstemhm
          436.49000549316406 152.99000549316406 -147.50001525878906 141.49000549316406 hintmask 10100000
          437.99000549316406 1148.990005493164 rmoveto
          8 -949 rlineto
          133 hlineto
          161 callgsubr
          949 312.00999450683594 -2 rlineto
          125.00999450683594 vlineto
          hintmask 11000000
          -312.00999450683594 -3 3 389.02000427246094 rlineto
          -156 hlineto
          2.9900054931640625 -389.02000427246094 -310.99000549316406 3 -1 -125.00999450683594 rlineto
          hintmask 10100000
          312 2 rlineto
          endchar
        </CharString>
        <CharString name="daggerdbl">
          -275 498.5 122.49000549316406 526.989990234375 122.50999450683594 hstemhm
          436.97999572753906 150.00999450683594 -144.00999450683594 138 hintmask 11010000
          436.97999572753906 500 rmoveto
          12 -856 rlineto
          126.02000427246094 hlineto
          12 856 312 -3 rlineto
          125.00999450683594 vlineto
          hintmask 11100000
          -312 -2 rlineto
          529 vlineto
          313 -2 rlineto
          125.00999450683594 vlineto
          -313 -3 4 389.02000427246094 rlineto
          -157 hlineto
          2.9900054931640625 -389.02000427246094 -309.97999572753906 3 -1 -125.00999450683594 310.99000549316406 2 rlineto
          -529 vlineto
          -310.99000549316406 2 rlineto
          -125.00999450683594 vlineto
          hintmask 11010000
          310.99000549316406 3 rlineto
          endchar
        </CharString>
        <CharString name="dcaron">
          278 -96 callsubr
          -66 callsubr
          918.9900054931641 122 hstem
          -77 callsubr
          171 618.989990234375 -82 callsubr
          294.02000427246094 206 callgsubr
          1442.979995727539 1684.990005493164 rmoveto
          -133 -41 -10 115 callsubr
          -21.020004272460938 -63 vhcurveto
          7 -23 125 callgsubr
          233 callgsubr
          56 156 176 vvcurveto
          103 -18 97 -42 38 vhcurveto
          -550.9900054931641 -499 rmoveto
          -94 callgsubr
          1676 82 callsubr
          -478 hlineto
          -618.9900054931641 -630 -92 callgsubr
        </CharString>
        <CharString name="dcroat">
          183 callsubr
          169 60 callsubr
          hstem
          -77 callsubr
          171 618.989990234375 12 callsubr
          1213.990005493164 1432.990005493164 rmoveto
          -155.02000427246094 231.02000427246094 82 callsubr
          -231.02000427246094 -293.99000549316406 -108 293.99000549316406 -139 hlineto
          -94 callgsubr
          1336.990005493164 155.02000427246094 108 hlineto
          -941 -877 -92 callgsubr
        </CharString>
        <CharString name="degree">
          -392 946.9900054931641 162 callsubr
          455.00999450683594 104 hstem
          121 111 444.97999572753906 110 vstem
          453.97999572753906 1608.990005493164 rmoveto
          -187.99000549316406 -145 -140 -191 -188 15 callsubr
          -142.99000549316406 184 189 143.99000549316406 139 192 188.99000549316406 -146.97999572753906 142 -186.02000427246094 hvcurveto
          -559 vmoveto
          -122.99000549316406 -99 99 129 -66 callsubr
          97 -14 callgsubr
          -50 callgsubr
          124 99 -98 -129 -132 -97 -96.00999450683594 -126.00999450683594 hvcurveto
          endchar
        </CharString>
        <CharString name="dieresis">
          -519 1408 110 callsubr
          hstem
          56.99000549316406 216.99000549316406 234.99998474121094 216 vstem
          57 1513.979995727539 rmoveto
          65 callsubr
          56 157 callgsubr
          -29 43 -70 -58.99000549316406 -59 -49 -70 vhcurveto
          451.99000549316406 hmoveto
          119 callsubr
          55 62 55 46 74 62 -30 43 -69 -59 -58 -49 -70 vhcurveto
          endchar
        </CharString>
        <CharString name="dieresis.cap">
          -496 1689.979995727539 161 callsubr
          hstem
          14 callsubr
          118 callgsubr
          vstem
          14 callsubr
          9 callsubr
          -33.02000427246094 142 callsubr
          endchar
        </CharString>
        <CharString name="divide">
          92 260.99000549316406 135 callsubr
          208.02000427246094 129.99000549316406 219.00999450683594 211 callgsubr
          hstem
          586.9900054931641 161 callsubr
          vstem
          587 1169.979995727539 rmoveto
          -83 callsubr
          234 callsubr
          59 65 60 -74 callgsubr
          79.02000427246094 -10 callgsubr
          -35 47 211 callsubr
          -63 -81 callgsubr
          -53 -76 vhcurveto
          -355 -331 rmoveto
          2 callsubr
          929 129.99000549316406 -929 vlineto
          354 -466 rmoveto
          -83 callsubr
          -74 callgsubr
          -40 58 66 59 -74 callgsubr
          79.00999450683594 245 callsubr
          -35 47 211 callsubr
          -63 -81 callgsubr
          -52.97999572753906 -75.02000427246094 vhcurveto
          endchar
        </CharString>
        <CharString name="dollar">
          81 -14 -61 callgsubr
          1285.989990234375 60 callgsubr
          hstemhm
          -20 callgsubr
          161.99000549316406 205.989990234375 124.50999450683594 -79.489990234375 124.5 224.5 -28 callsubr
          hintmask 11110100
          1169.979995727539 384.97999572753906 rmoveto
          45 callsubr
          vhcurveto
          -216 104.02000427246094 -121 70.99000549316406 171 vvcurveto
          152 -1 -11 callsubr
          69 162 hhcurveto
          157 -10 callsubr
          -34 -48 52 callsubr
          hvcurveto
          35 133 rlineto
          hintmask 11101100
          -50.02000427246094 33.02000427246094 -100 41.99000549316406 -164.99000549316406 6 2.9900054931640625 215 rcurveline
          133 callsubr
          hlineto
          192 callgsubr
          -217.99000549316406 rlineto
          -206.99000549316406 -20.009994506835938 -204 -104 -248 vvcurveto
          -225 200 -140.99000549316406 198 -90.00999450683594 vhcurveto
          212.99000549316406 -97 151 -69 -174 vvcurveto
          -168.02000427246094 -134 -79 -211 -143.99000549316406 -43 callgsubr
          rlineto
          hintmask 11110100
          14 callsubr
          -33 148 195 callsubr
          174.97999572753906 -8 -72 callgsubr
          -221 rcurveline
          124 hlineto
          2.9900054931640625 221 rlineto
          258.00999450683594 19 175.99000549316406 132 194 callgsubr
          vvcurveto
          endchar
        </CharString>
        <CharString name="dong">
          28 0 150.99000549316406 139.989990234375 138 681.010009765625 137.99000549316406 144.99998474121094 128 hstem
          83 callsubr
          3 callgsubr
          521.9999847412109 165 vstem
          512 1392.990005493164 rmoveto
          344.99000549316406 -37 hlineto
          3 -127 rlineto
          9.020004272460938 -43 -69 9.990005493164062 181 callgsubr
          hhcurveto
          -319 -187.99000549316406 -189 -322.99000549316406 -303 249 callgsubr
          -142 221 180 87 69.02000427246094 41 44 hvcurveto
          -70 vlineto
          -8 0.9900054931640625 -32.02000427246094 20.009994506835938 vhcurveto
          117 1102.009994506836 266 128 -266 173 -165 -173 -344.99000549316406 -128 hlineto
          344.99000549316406 -868 rmoveto
          -6 callsubr
          -24 -54 callsubr
          -75 -212 hhcurveto
          -115 -133 85 226 210 74 160 252 177 callsubr
          44 -80 callgsubr
          -15 15 hvcurveto
          -544.0099945068359 vlineto
          -744 -524.9799957275391 rmoveto
          1105 151 -1105 -151 hlineto
          endchar
        </CharString>
        <CharString name="dotaccent">
          -971 253 callsubr
          hstem
          14 callsubr
          52 callgsubr
          vstem
          14 callsubr
          1501.979995727539 -94 callsubr
          endchar
        </CharString>
        <CharString name="dotaccent.cap">
          -971 178 callgsubr
          206 callsubr
          50.99000549316406 227 vstem
          51 19 callgsubr
          47.97999572753906 -40 134 callgsubr
          64 57 -59 callsubr
          vhcurveto
          endchar
        </CharString>
        <CharString name="dotlessi">
          0 1138.990005493164 67 callsubr
          210.97999572753906 1139 -87 callgsubr
          endchar
        </CharString>
        <CharString name="e">
          58 callgsubr
          1014.9900054931641 124 callgsubr
          -107 callsubr
        </CharString>
        <CharString name="eacute">
          58 callgsubr
          938.9900054931641 159 callgsubr
          59 callsubr
          30 callsubr
          76 -1125 -107 callsubr
        </CharString>
        <CharString name="ebreve">
          -75 callsubr
          179 130 hstemhm
          104 74 callsubr
          -2.989990234375 118 443.989990234375 114.00999450683594 -74.01998901367188 157.02000427246094 hintmask 00000000
          hintmask 11110110
          602.9900054931641 170 callsubr
          110 callgsubr
          65 callgsubr
          -196.02000427246094 -23.979995727539062 89 callgsubr
          -118 hlineto
          86 callsubr
          hintmask 11111001
          412 -782 -107 callsubr
        </CharString>
        <CharString name="ecaron">
          -75 callsubr
          166 127 36 callgsubr
          680 209 callsubr
          rmoveto
          6 callsubr
          214 callsubr
          192 callsubr
          -46 callgsubr
          149.02000427246094 hlineto
          334.99000549316406 -769 -107 callsubr
        </CharString>
        <CharString name="ecircumflex">
          -75 callsubr
          409.010009765625 127 36 callgsubr
          604 1565 rmoveto
          262.97999572753906 -24 callgsubr
          69 callsubr
          -69 callsubr
          274 263 rlineto
          410.99000549316406 -1012.0200042724609 -107 callsubr
        </CharString>
        <CharString name="edieresis">
          -75 callsubr
          252.02000427246094 110 callsubr
          hstemhm
          104 74 callsubr
          2 217 235 216 -71.00999450683594 157.02000427246094 hintmask 00000000
          hintmask 11110110
          369.99000549316406 1408 rmoveto
          174 callgsubr
          74 62 -29 43 -70 -59 -59 86 callgsubr
          56 205 callgsubr
          62.02000427246094 -35 callgsubr
          46 74 62 -30 43 -69 -59 -58 86 callgsubr
          -35 callgsubr
          hvcurveto
          hintmask 11101001
          194 -855.0200042724609 -107 callsubr
        </CharString>
        <CharString name="edotaccent">
          -75 callsubr
          232.010009765625 -20 callgsubr
          hstem
          104 74 callsubr
          220.010009765625 52 callgsubr
          148.989990234375 157.02000427246094 vstem
          594.9799957275391 149 callgsubr
          rmoveto
          16 callsubr
          171 callgsubr
          58 hvcurveto
          420 -835.0099945068359 -107 callsubr
        </CharString>
        <CharString name="egrave">
          58 callgsubr
          623.9799957275391 1314.979995727539 rmoveto
          222 callsubr
          76 callgsubr
          -117 133 -119 134 -100.99000549316406 -66 callsubr
          rlinecurve
          1 callsubr
          -103 80 -115 197.02000427246094 -185 -10 callsubr
          111 callgsubr
          rlinecurve
          391 -762 -107 callsubr
        </CharString>
        <CharString name="eight">
          -4 -96 callsubr
          125 callsubr
          1345.990005493164 117 hstemhm
          83 callsubr
          207 callsubr
          -100.99000549316406 154 577.989990234375 153 -103.989990234375 165 hintmask 11010100
          1163 390.97999572753906 rmoveto
          -1 195 -174 -57 callgsubr
          -184.02000427246094 210 callgsubr
          rrcurveto
          hintmask 11011000
          204 9 callgsubr
          94 176 -11 callgsubr
          vvcurveto
          211 -180 137 -251 -242 -212 1 callsubr
          -248 -194 123 -111 148 -88 vhcurveto
          hintmask 11100100
          -227 -99.97999572753906 -104 -160.02000427246094 -159 vvcurveto
          -289 263.99000549316406 -111.97999572753906 246 vhcurveto
          hintmask 11010100
          260 238 225 callsubr
          278 -72 callgsubr
          hvcurveto
          -792 816 rmoveto
          153 129 88 -28 callsubr
          vhcurveto
          hintmask 11011000
          180 53 callsubr
          -105 -148 192 callgsubr
          141 callgsubr
          -155 -111 -138 -148 -51 rrcurveto
          hintmask 11010100
          -168 91.02000427246094 75 callsubr
          97 168 vvcurveto
          303 -1105 rmoveto
          hintmask 11100100
          -232 -124 112 92 callsubr
          157 126 127 159 60 hvcurveto
          197 -100 198 -85 -186 vvcurveto
          hintmask 11010100
          -169 -149 -100 -175 vhcurveto
          endchar
        </CharString>
        <CharString name="ellipsis">
          682 -96 callsubr
          259.99000549316406 hstem
          213.99000549316406 233 427.989990234375 161 callsubr
          429.0299987792969 248 callsubr
          vstem
          214 101 callgsubr
          rmoveto
          231 callsubr
          58 hhcurveto
          -10 callgsubr
          59 59.97999572753906 102 callgsubr
          -72 callgsubr
          hvcurveto
          64 -2 215 callgsubr
          -59 111 callgsubr
          -75 1 hvcurveto
          660.9900054931641 hmoveto
          -71 2 50 -50.970001220703125 58 hhcurveto
          66 59 59.97999572753906 102 callgsubr
          -3.0200042724609375 hvcurveto
          64 -1 -36.99000549316406 57.02000427246094 211 callsubr
          hhcurveto
          -63 -60 111 callgsubr
          -75 2 hvcurveto
          661.0200042724609 hmoveto
          231 callsubr
          58.99000549316406 hhcurveto
          65 58 59.97999572753906 102 callgsubr
          -1 hvcurveto
          64 -72 callgsubr
          215 callgsubr
          -60 111 callgsubr
          -75 2 hvcurveto
          endchar
        </CharString>
        <CharString name="emacron">
          -75 callsubr
          296.010009765625 124 hstemhm
          104 74 callsubr
          65 543 162 callgsubr
          157.02000427246094 hintmask 00000000
          hintmask 11111100
          875.9900054931641 1576 rmoveto
          -543.0099945068359 -124 543.0099945068359 124 hlineto
          hintmask 11111010
          139 -1023.0200042724609 -107 callsubr
        </CharString>
        <CharString name="emdash">
          1042 704.9799957275391 135 hstem
          135 callsubr
          1863 vstem
          135 callsubr
          839.9900054931641 rmoveto
          -135 1863 135 -1863 vlineto
          endchar
        </CharString>
        <CharString name="endash">
          391 704.9799957275391 135 hstem
          135 callsubr
          1212 vstem
          135 callsubr
          839.9900054931641 rmoveto
          -135 1212.009994506836 135 -1212.009994506836 vlineto
          endchar
        </CharString>
        <CharString name="eng">
          -7 -507 118 1405.990005493164 140 hstem
          192.97999572753906 -50 callsubr
          581.0200042724609 -28 callsubr
          vstem
          192.97999572753906 204 callsubr
          168 878.9799957275391 vlineto
          87.02000427246094 76 callgsubr
          15 callsubr
          -33 callsubr
          109 3 rrcurveto
          174 6 62.02000427246094 -72.00999450683594 -246.99000549316406 vvcurveto
          -740 vlineto
          -257.99000549316406 -50 -94 -135 -1 vhcurveto
          -29 -58.99000549316406 5 7 -19 hvcurveto
          -116 vlineto
          -7 16 87 -7 38 hhcurveto
          214 103 184 308.97999572753906 hvcurveto
          722 vlineto
          336 109 callgsubr
          118 -245 -5 vhcurveto
          -170 -5 -178 -98.02000427246094 195 callgsubr
          -81 callgsubr
          rrcurveto
          146 2 callgsubr
          vlineto
          endchar
        </CharString>
        <CharString name="eogonek">
          -173 158 callgsubr
          -60 callsubr
          442.97999572753906 112 372 119 hstem
          104 74 callsubr
          260.010009765625 164.99000549316406 173.989990234375 157.02000427246094 vstem
          1014.9900054931641 124 callgsubr
          rmoveto
          9.020004272460938 47 0 55 72.99000549316406 vvcurveto
          -7 260.02000427246094 -161.02000427246094 -83 callgsubr
          -240.99000549316406 -87 callsubr
          rrcurveto
          -328 -3.9900054931640625 -182.99000549316406 -244.02000427246094 -343 vvcurveto
          -365 176.99000549316406 -215.97999572753906 320 46 48 3.9900054931640625 -36 callsubr
          47 vhcurveto
          -108 -71 123 callsubr
          -130 2 8 callgsubr
          rrcurveto
          -136 1 110 -64 133 hhcurveto
          85 -14 callgsubr
          21 41 53.99000549316406 hvcurveto
          131 callgsubr
          vlineto
          -52.99000549316406 -80 callgsubr
          -58 -14 -51.02000427246094 -69 callgsubr
          rrcurveto
          195 callgsubr
          -68.00999450683594 163 callgsubr
          93 -1 141 callgsubr
          123 158.99000549316406 157 113.00999450683594 69.97999572753906 -2 1 rcurveline
          -36 callsubr
          6 161 callgsubr
          6 7 6 -57 callsubr
          69 callsubr
          rcurveline
          -39.02000427246094 -60 -147 -36.99000549316406 -103 hhcurveto
          -211 -154.99000549316406 110 292.97999572753906 -10.020004272460938 hvcurveto
          40 747 vlineto
          -409.99000549316406 484 rmoveto
          207 -33 callsubr
          -163 -209 -12 hvcurveto
          -593 hlineto
          263 30 132.02000427246094 109 169 hhcurveto
          endchar
        </CharString>
        <CharString name="equal">
          137 callgsubr
          211 callgsubr
          1113.990005493164 rmoveto
          -128 915 128 -915 vlineto
          -559 vmoveto
          -127 915 127 -915 vlineto
          endchar
        </CharString>
        <CharString name="estimated">
          82 -96 callsubr
          97.97000122070312 545.010009765625 110 519.989990234375 99 hstem
          108.99000549316406 211 callgsubr
          701.0099945068359 223 vstem
          1262.979995727539 627 rmoveto
          11.020004272460938 51 0 76 callsubr
          86.02000427246094 vvcurveto
          -11.020004272460938 328.99000549316406 -237 200 -290 -5.0200042724609375 rrcurveto
          -416.99000549316406 1 callgsubr
          -210 -286 -392 vvcurveto
          -430 228.99000549316406 -256.97999572753906 394.02000427246094 15 callsubr
          197 42.97999572753906 209 callgsubr
          196 callgsubr
          vhcurveto
          -37 94 160 callsubr
          -70 -159 176 callgsubr
          -147.99000549316406 hhcurveto
          -171 -141 53 224 callgsubr
          -87 hvcurveto
          368 913 vlineto
          -536.9900054931641 629.9900054931641 rmoveto
          163 100.99000549316406 -56 -80 61 hvcurveto
          -384 -701.0099945068359 334.99000549316406 vlineto
          126.02000427246094 222 callsubr
          -6 callgsubr
          58.99000549316406 155.02000427246094 hhcurveto
          endchar
        </CharString>
        <CharString name="eth">
          -94 191 callsubr
          114.97000122070312 942 125 hstem
          108.99000549316406 -28 callsubr
          673.9999847412109 167 vstem
          662 1566.990005493164 rmoveto
          -3.0200042724609375 2 -87 callsubr
          -60 callgsubr
          -3 3.0200042724609375 rrcurveto
          100 callgsubr
          58 102 callgsubr
          92 0 vvcurveto
          109 callgsubr
          69 rlineto
          0 -82 -99.99000549316406 -53 -59 vhcurveto
          246 callgsubr
          47.99000549316406 -99.97999572753906 47 -98 30 -40.02000427246094 -97 rcurveline
          72 -23 89.00999450683594 -44 76 90 callsubr
          -141 -153 rcurveline
          89 -70 208 callgsubr
          160 140 -109.02000427246094 114.00999450683594 163 callsubr
          58 -178 rlinecurve
          7 callsubr
          70 -93 42 -104 1 rrcurveto
          -298 1 -213 -221 -378 vvcurveto
          -362 199.99000549316406 -227 307.02000427246094 250 callsubr
          vhcurveto
          293.99000549316406 4 206 204.97999572753906 430 vvcurveto
          404.00999450683594 -165 336 -288.99000549316406 215 vhcurveto
          286.97999572753906 -993 rmoveto
          -332 -156 -154 -170.99000549316406 -202.02000427246094 -145 171 304 281.97999572753906 129 185 222 132 callsubr
          114.00999450683594 -81.99000549316406 192 callsubr
          28 vhcurveto
          11 -98 -2 -98 -81 vvcurveto
          endchar
        </CharString>
        <CharString name="exclam">
          -700 -96 callsubr
          15 callgsubr
          hstemhm
          92 callsubr
          233 -195.5 167.49000549316406 hintmask 10100000
          210.97999572753906 1780 rmoveto
          21.020004272460938 -1307.009994506836 rlineto
          180 callgsubr
          hlineto
          18 1307.009994506836 rlineto
          -187 hlineto
          hintmask 11000000
          191 callsubr
          -1672 rmoveto
          -74 2 113 callsubr
          -36.99000549316406 100 callgsubr
          211 callsubr
          hhcurveto
          -63 -60 71 callgsubr
          2 hvcurveto
          endchar
        </CharString>
        <CharString name="exclamdbl">
          37 -96 callsubr
          15 callgsubr
          hstemhm
          213.99000549316406 233 -195.52000427246094 167.50999450683594 466 233 -195.5 167.50999450683594 hintmask 10101000
          211 callgsubr
          1780 rmoveto
          165 callsubr
          671 hmoveto
          165 callsubr
          hintmask 11010000
          -698 -1672 rmoveto
          -74 -60 callgsubr
          113 callsubr
          -37 100 callgsubr
          -72.99000549316406 hhcurveto
          -63 -60 71 callgsubr
          2 hvcurveto
          670.9900054931641 hmoveto
          -74 2 50 111 callsubr
          59 hhcurveto
          227 callgsubr
          58 58.97999572753906 82 -2 hvcurveto
          68 -72 callgsubr
          -37 100 callgsubr
          -72.99000549316406 hhcurveto
          111 callgsubr
          75 callgsubr
          71 callgsubr
          -60 callgsubr
          hvcurveto
          endchar
        </CharString>
        <CharString name="exclamdown">
          -700 1094.979995727539 265.00999450683594 hstemhm
          92 callsubr
          233 -205 167.49000549316406 hintmask 00000000
          hintmask 11000000
          416.99000549316406 1235.990005493164 rmoveto
          74 -2 -50 50 -59 hhcurveto
          -66.00999450683594 -58 -59 -82 2 hvcurveto
          -68 2 36.99000549316406 194 callsubr
          73.00999450683594 hhcurveto
          63 59.99000549316406 62.02000427246094 102 callgsubr
          -72 callgsubr
          hvcurveto
          hintmask 10100000
          -27.009994506835938 -1671.979995727539 rmoveto
          -21 1306.990005493164 rlineto
          -147.99000549316406 hlineto
          -18 -1306.990005493164 rlineto
          186.99000549316406 hlineto
          endchar
        </CharString>
        <CharString name="f">
          -500 1013.9799957275391 126.00999450683594 407.99000549316406 134 hstem
          271.99000549316406 -86 callgsubr
          endchar
        </CharString>
        <CharString name="f_f">
          301 27 callsubr
          633.9999847412109 166.99000549316406 vstem
          -84 callsubr
          endchar
        </CharString>
        <CharString name="f_f_i">
          889 70 callgsubr
          633.9999847412109 -82 callsubr
          540.0200042724609 52 callgsubr
          -196.99000549316406 -28 callsubr
          hintmask 10111010
          -84 callsubr
          hintmask 11011100
          707.0099945068359 488 137 callsubr
          -72 -81 callgsubr
          -62 -39 callsubr
          hintmask 10111010
          33 129 callgsubr
        </CharString>
        <CharString name="f_f_l">
          895 27 callsubr
          633.9999847412109 -82 callsubr
          576.0099945068359 167 vstem
          -84 callsubr
          743 650.0200042724609 rmoveto
          -1664 -11 callsubr
          1664 -167.02000427246094 vlineto
          endchar
        </CharString>
        <CharString name="ffi_dflt">
          889 23 callsubr
          633.9999847412109 -82 callsubr
          hintmask 10101110
          -49 callgsubr
          800.9900054931641 hmoveto
          -1013.9900054931641 167 1013.9900054931641 303 -45 callgsubr
          -303 128 vlineto
          185 82 -10 callsubr
          -45 callsubr
          102 callgsubr
          44 -6.9900054931640625 -13 36 25 callgsubr
          -81 callgsubr
          hhcurveto
          -182 -210 -111.99000549316406 -338 hvcurveto
          -92 vlineto
          -195.99000549316406 -34.02000427246094 rlineto
          -92 195.99000549316406 vlineto
          hintmask 11010110
          -1483 488 -94 callsubr
          hintmask 10101110
          90 callgsubr
          -362.99000549316406 -87 callgsubr
          endchar
        </CharString>
        <CharString name="fi">
          88 70 callgsubr
          539.9999847412109 230 -196.989990234375 -28 callsubr
          hintmask 10110100
          271.99000549316406 1013.9900054931641 rmoveto
          -102 callgsubr
          hintmask 11011000
          706.9900054931641 488 rmoveto
          -83 callsubr
          49 -42 58 77 callsubr
          vhcurveto
          hintmask 10110100
          33.02000427246094 129 callgsubr
        </CharString>
        <CharString name="fi_trk">
          88 23 callsubr
          hintmask 10101100
          -49 callgsubr
          hintmask 11010100
          -682 488 -94 callsubr
          hintmask 10101100
          90 callgsubr
          -362.99000549316406 -87 callgsubr
          endchar
        </CharString>
        <CharString name="five">
          -79 -347.99000549316406 121 778.9800109863281 -50 callgsubr
          430.99998474121094 143.99000549316406 hstem
          901.9799957275391 169 vstem
          203 -334.99000549316406 rmoveto
          -11.020004272460938 35 56 -72 callgsubr
          90 callgsubr
          hhcurveto
          473 4 271 298 283.99000549316406 vvcurveto
          270.99000549316406 -157.99000549316406 168 -282.00999450683594 -89 -88.99000549316406 -16 -30 -99 vhcurveto
          -74 callgsubr
          477 rlineto
          603.0200042724609 hlineto
          16 144 rlineto
          -750 hlineto
          -61 -735.9900054931641 41 -25 108.00999450683594 40 -57 callgsubr
          22 91.02000427246094 -69 callgsubr
          rlinecurve
          226 125 callsubr
          -107.00999450683594 -218 -252.97999572753906 -265 -202 -352.99000549316406 1 hvcurveto
          -33.02000427246094 -19.990005493164062 2 2.9900054931640625 -27.009994506835938 hvcurveto
          -69 callgsubr
          -112.99000549316406 rlineto
          endchar
        </CharString>
        <CharString name="fl">
          94 27 callsubr
          575.9999847412109 -86 callgsubr
          743 650.0200042724609 rmoveto
          -1664 167 1664 -167 vlineto
          endchar
        </CharString>
        <CharString name="florin">
          -182 1012.9799957275391 128 410.010009765625 135 hstemhm
          218.99000549316406 828 -593.010009765625 165 hintmask 11100000
          439.99000549316406 1012.9799957275391 rmoveto
          -115 -1368.979995727539 rlineto
          163.99000549316406 hlineto
          113 1368.979995727539 rlineto
          321 hlineto
          161 callgsubr
          128 rlineto
          hintmask 11010000
          -320 hlineto
          14.009994506835938 223 callgsubr
          rlineto
          217.99000549316406 24 100.99000549316406 77 128 hhcurveto
          89 53 162 callgsubr
          -10 16 hvcurveto
          10.020004272460938 137 rlineto
          6 -14 -44 11 -89 hhcurveto
          -219 -180.99000549316406 -131.02000427246094 -345.99000549316406 -42 hvcurveto
          -8 -68.02000427246094 -225 -40 -6 -88 rlineto
          hintmask 11100000
          221 hlineto
          endchar
        </CharString>
        <CharString name="four">
          13 0 225 callsubr
          hstem
          833.4700012207031 159.50999450683594 vstem
          1244 225 callsubr
          rmoveto
          -251 487.02000427246094 -153 hlineto
          -13 -487.02000427246094 rlineto
          -536.9900054931641 hlineto
          -33 callsubr
          223 callgsubr
          44 86 400 792.9900054931641 51 175 callsubr
          rlinecurve
          -104 64 rlineto
          -59 hlineto
          -51 -122 -487 -1014 -47 -92 41 -78.99000549316406 rcurveline
          681.9900054931641 -375.99000549316406 166 375.99000549316406 251 225 callsubr
          hlineto
          endchar
        </CharString>
        <CharString name="four.numr">
          -150 874.9799957275391 116 hstem
          693.4700012207031 155.52000427246094 vstem
          1041.979995727539 874.9900054931641 rmoveto
          -69 callgsubr
          116 rlineto
          -192 298 hlineto
          -149 -16 -6 -280 rlineto
          -2 -397 vlineto
          56 100 384 629 -99 59 rlineto
          -52 hlineto
          -474.00999450683594 -832 41 -72.00999450683594 rlineto
          541 hlineto
          -1 -283 rlineto
          156.02000427246094 283 192.99000549316406 hlineto
          endchar
        </CharString>
        <CharString name="fraction">
          -275 0 1529.990005493164 hstem
          159.99000549316406 690.9900054931641 vstem
          159.99000549316406 hmoveto
          150 hlineto
          541 1530 rlineto
          -152 hlineto
          -539 -1530 rlineto
          endchar
        </CharString>
        <CharString name="franc">
          -151 251 callgsubr
          135 297.989990234375 131 561 131 hstem
          237.99000549316406 169.97999572753906 vstem
          29 251 callgsubr
          rmoveto
          209 -265.99000549316406 169.99000549316406 251 callgsubr
          267 135 -267 297.97999572753906 509.00999450683594 131 -509.00999450683594 560.9900054931641 681 131 -850.9900054931641 -1121 -209 -135 hlineto
          endchar
        </CharString>
        <CharString name="g">
          -86 callsubr
          -34 callgsubr
          hintmask 1111001010000000
          1190.990005493164 1136.990005493164 -44 callsubr
          hintmask 1110101010000000
          -90 callgsubr
          hintmask 1111000110000000
          -72 callsubr
          hintmask 1111010001000000
          -97 callgsubr
          hintmask 1111000110000000
          -96 callgsubr
          hintmask 1111001010000000
          74 callgsubr
          hintmask 1110101010000000
          -63 callsubr
          vhcurveto
          167 1 103 -88.99000549316406 -182 vvcurveto
          hintmask 1111001010000000
          -70 callgsubr
          hintmask 1111010001000000
          -92 callsubr
          hintmask 1111001010000000
          11 callsubr
        </CharString>
        <CharString name="gbreve">
          -86 callsubr
          178.99000549316406 130 -37 callgsubr
          -79.010009765625 118 444.010009765625 -32 callgsubr
          -82.00001525878906 201 callsubr
          hintmask 1111010001100000
          605.9799957275391 1334.990005493164 rmoveto
          61 callgsubr
          -118 hlineto
          91 callsubr
          -11.979995727539062 225 callsubr
          -181 221 hhcurveto
          585.0099945068359 -198 -44 callsubr
          hintmask 1110110100010000
          -90 callgsubr
          hintmask 1111010010010000
          -72 callsubr
          hintmask 1111011000001000
          -97 callgsubr
          hintmask 1111010010010000
          -96 callgsubr
          hintmask 1111010001100000
          134 vlineto
          hintmask 1110110100010000
          -65 callgsubr
          hintmask 1111011000001000
          -92 callsubr
          hintmask 1110110100010000
          11 callsubr
        </CharString>
        <CharString name="gcaron">
          -86 callsubr
          -28 callsubr
          127 -34 callgsubr
          hintmask 1111010101000000
          682.9900054931641 -17 callsubr
          15 callsubr
          hlineto
          508 -185 -95 callsubr
        </CharString>
        <CharString name="gcircumflex">
          -86 callsubr
          409.00001525878906 127 -34 callgsubr
          hintmask 1111010101000000
          605.9799957275391 1565 rmoveto
          263 -263 103 55 callsubr
          -297 0 callsubr
          254 callsubr
          rlineto
          585.0099945068359 -428.00999450683594 -95 callsubr
        </CharString>
        <CharString name="gcommaaccent">
          -86 callsubr
          -37 callgsubr
          134 -43 callsubr
          237.99998474121094 -4 callgsubr
          hintmask 1111001011000000
          581.9799957275391 1331 rmoveto
          119 69 rlineto
          37.99000549316406 vlineto
          -40 -36 callsubr
          -37 209 callgsubr
          70 vvcurveto
          83 36 71 32 24 vhcurveto
          150 callgsubr
          vlineto
          176 callgsubr
          32 rlineto
          -62 -80 callgsubr
          -92 -103 -142 vvcurveto
          -105 47 -81 53.99000549316406 -6 callsubr
          vhcurveto
          609.0099945068359 -194 -44 callsubr
          hintmask 1110101011000000
          -90 callgsubr
          hintmask 1111000111000000
          -72 callsubr
          hintmask 1111010010100000
          -97 callgsubr
          hintmask 1111000111000000
          -96 callgsubr
          hintmask 1111001011000000
          74 callgsubr
          hintmask 1110101011000000
          -63 callsubr
          vhcurveto
          167 1 103 -88.99000549316406 -182 vvcurveto
          hintmask 1111001011000000
          -70 callgsubr
          hintmask 1111010010100000
          -92 callsubr
          hintmask 1111001011000000
          11 callsubr
        </CharString>
        <CharString name="gdotaccent">
          -86 callsubr
          232.00001525878906 241.99000549316406 -37 callgsubr
          143.989990234375 230 141 -4 callgsubr
          hintmask 1111010101100000
          598 149 callgsubr
          rmoveto
          -8 callgsubr
          -72 -61 108 callgsubr
          49 -42 58 hvcurveto
          593 -251 -44 callsubr
          hintmask 1110110101100000
          -90 callgsubr
          hintmask 1111010011100000
          -72 callsubr
          hintmask 1111011001010000
          -97 callgsubr
          hintmask 1111010011100000
          -96 callgsubr
          hintmask 1111010101100000
          74 callgsubr
          hintmask 1110110101100000
          -63 callsubr
          vhcurveto
          167 1 103 -88.99000549316406 -182 vvcurveto
          hintmask 1111010101100000
          -70 callgsubr
          hintmask 1111011001010000
          -92 callsubr
          hintmask 1111010101100000
          11 callsubr
        </CharString>
        <CharString name="germandbls">
          -30 -96 callsubr
          125 callsubr
          911.9799957275391 99 347.010009765625 -53 callgsubr
          hstemhm
          190.99000549316406 -82 callsubr
          342.99998474121094 154.99000549316406 60.00999450683594 166 -23.989990234375 169 hintmask 10111010
          855.9799957275391 873.9799957275391 rmoveto
          hintmask 11111100
          141 226.02000427246094 57 236.02000427246094 vvcurveto
          185 -178 86 -187 -249 -211 -132 -304 -53 vhcurveto
          -159.99000549316406 -30 rlineto
          -99 147 -28 vlineto
          -985.9900054931641 167 974.9900054931641 vlineto
          354 139 131 192 122 105 -46.02000427246094 -127 vhcurveto
          -198.97999572753906 -215 -52.02000427246094 -180.99000549316406 vvcurveto
          hintmask 10111010
          -289.00999450683594 356 -24.990005493164062 1 -248 vhcurveto
          -133 123 callsubr
          -58 -111 59 callsubr
          -78.99000549316406 26.990005493164062 20.009994506835938 -38.02000427246094 vhcurveto
          -132 vlineto
          -17 40 91.00999450683594 -96 callsubr
          99.99000549316406 hhcurveto
          185.02000427246094 209 86.97000122070312 240 hvcurveto
          332 -371.02000427246094 26.990005493164062 204 vvcurveto
          endchar
        </CharString>
        <CharString name="grave">
          -744 1314.9700012207031 466 hstem
          14 callsubr
          252 callgsubr
          vstem
          421.99000549316406 31 callgsubr
          -101.00999450683594 -66 callsubr
          rlinecurve
          59 callsubr
          -103 80 235 callsubr
          95.00999450683594 111 callgsubr
          rlinecurve
          endchar
        </CharString>
        <CharString name="grave.cap">
          -737 1588.979995727539 386 hstem
          14 callsubr
          457.99000549316406 vstem
          436.97999572753906 219 callsubr
          -45 -16 callsubr
          endchar
        </CharString>
        <CharString name="greater">
          67 223 callsubr
          1038.990005493164 hstem
          51 callsubr
          962 vstem
          51 callsubr
          1292.979995727539 rmoveto
          -156 vlineto
          789.0200042724609 -363.99000549316406 -789.0200042724609 -360 rlineto
          -159 vlineto
          962 458 rlineto
          122 vlineto
          -962 459 rlineto
          endchar
        </CharString>
        <CharString name="greaterequal">
          67 0 -7 callsubr
          hstem
          52 callgsubr
          964.9900054931641 vstem
          52 callgsubr
          1281.990005493164 rmoveto
          163 callsubr
          vlineto
          798 -355 -798 -355 rlineto
          -155.02000427246094 vlineto
          965 448 rlineto
          123 vlineto
          -965 448 rlineto
          -1281.990005493164 vmoveto
          965 -7 callsubr
          -965 133 callsubr
          hlineto
          endchar
        </CharString>
        <CharString name="gtilde">
          -86 callsubr
          206.99000549316406 127 22.010009765625 125.99000549316406 -34 callgsubr
          hintmask 0000000000000000
          hintmask 1111011010100000
          450.99000549316406 1512 rmoveto
          hintmask 1111010010100000
          123 7 2 callgsubr
          175.99000549316406 78 callsubr
          hintmask 1111011010100000
          127 callgsubr
          66 -53.99000549316406 rlineto
          -85 callsubr
          44 callgsubr
          60 86 hhcurveto
          hintmask 1111010010100000
          740 -375.00999450683594 -44 callsubr
          hintmask 1110110010100000
          -90 callgsubr
          hintmask 1111010001100000
          -72 callsubr
          hintmask 1111010100010000
          -97 callgsubr
          hintmask 1111010001100000
          -96 callgsubr
          hintmask 1111010010100000
          134 vlineto
          hintmask 1110110010100000
          -65 callgsubr
          hintmask 1111010100010000
          -92 callsubr
          hintmask 1110110010100000
          11 callsubr
        </CharString>
        <CharString name="guillemotleft">
          630 101 callgsubr
          1025 hstem
          244.97999572753906 1423.009994506836 vstem
          897.9900054931641 1130.990005493164 rmoveto
          94 callgsubr
          -44 -50 callgsubr
          rlineto
          770 -124.99000549316406 rmoveto
          -44 -50 callgsubr
          -652.9900054931641 -448 rlineto
          -141 vlineto
          652.9900054931641 -436 44 121 -534 388.02000427246094 534 391 rlineto
          endchar
        </CharString>
        <CharString name="guillemotright">
          630 101 callgsubr
          1025 hstem
          261.97999572753906 1423.009994506836 vstem
          261.97999572753906 1006 rmoveto
          95 callsubr
          -44 -124.99000549316406 rlineto
          770 -50 callgsubr
          rmoveto
          -43.99000549316406 -124.99000549316406 534 -391 -534 -388.02000427246094 -85 callsubr
          -121 653 436 rlineto
          141 vlineto
          -653 448 rlineto
          endchar
        </CharString>
        <CharString name="guilsinglleft">
          -97 101 callgsubr
          1025 hstem
          244.97999572753906 697.0200042724609 vstem
          942 1006 rmoveto
          -44 -50 callgsubr
          94 callgsubr
          rlineto
          endchar
        </CharString>
        <CharString name="guilsinglright">
          -97 101 callgsubr
          1025 hstem
          261.97999572753906 697.0200042724609 vstem
          305.99000549316406 1130.990005493164 rmoveto
          -44 -124.99000549316406 95 callsubr
          rlineto
          endchar
        </CharString>
        <CharString name="h">
          8 173 callsubr
          197 callsubr
          770.9900054931641 1157 42 callsubr
          507 -167.02000427246094 -1664 -64 callgsubr
        </CharString>
        <CharString name="hbar">
          8 173 callsubr
          152 100.99000549316406 197 callsubr
          770.9900054931641 1157 42 callsubr
          152 270.99000549316406 100.99000549316406 -270.99000549316406 254.02000427246094 -167.02000427246094 -254.02000427246094 75 callsubr
          -100.99000549316406 15 callsubr
          -1309 -64 callgsubr
        </CharString>
        <CharString name="hcircumflex">
          8 173 callsubr
          704.989990234375 120.00999450683594 197 callsubr
          757.9900054931641 108 callsubr
          -279.97999572753906 296 rlineto
          207 callgsubr
          226 callsubr
          104 callsubr
          13 -704.9900054931641 42 callsubr
          507 -167.02000427246094 -1664 -64 callgsubr
        </CharString>
        <CharString name="hungarumlaut">
          -284 1332.979995727539 463.00999450683594 hstem
          132 callgsubr
          883.0200042724609 vstem
          132 callgsubr
          1386.990005493164 rmoveto
          79.00999450683594 -54 100 callsubr
          52 callsubr
          154 186 70 125 callsubr
          rlinecurve
          -124.00999450683594 196 callgsubr
          -24 -40 -211.99000549316406 -331 -28.020004272460938 -38 rlinecurve
          492.00999450683594 hmoveto
          77.99000549316406 -54 89 72 160 185 64 112 rlinecurve
          -118 100 callsubr
          -25.009994506835938 -40 -218.99000549316406 -321.97999572753906 -29 -38 rlinecurve
          endchar
        </CharString>
        <CharString name="hungarumlaut.cap">
          -346 1638.990005493164 350.97999572753906 hstem
          53.99000549316406 824.0099945068359 vstem
          53.99000549316406 1692 rmoveto
          95 84 callsubr
          467 54 callgsubr
          endchar
        </CharString>
        <CharString name="hyphen">
          63 callsubr
        </CharString>
        <CharString name="i">
          -90 callsubr
        </CharString>
        <CharString name="i.cy">
          -90 callsubr
        </CharString>
        <CharString name="i.dot">
          -90 callsubr
        </CharString>
        <CharString name="iacute">
          0 1780.979995727539 67 callsubr
          132 callsubr
          -56 callsubr
          38.99000549316406 -244 -87 callgsubr
          endchar
        </CharString>
        <CharString name="ibreve">
          1334.979995727539 130 hstem
          180 callsubr
          125 callsubr
          137.97999572753906 166 140.010009765625 -32 callgsubr
          vstem
          180 callsubr
          1693.979995727539 rmoveto
          236 callgsubr
          225 callsubr
          -181 221 hhcurveto
          61 callgsubr
          -117.97999572753906 hlineto
          255.97000122070312 -554.9900054931641 -87 callgsubr
          endchar
        </CharString>
        <CharString name="icircumflex">
          1564.990005493164 127 67 callsubr
          -77 187 callsubr
          9 callgsubr
          31 callsubr
          75 callsubr
          hlineto
          -297 37 callsubr
          287.97999572753906 -205.99000549316406 -87 callgsubr
          endchar
        </CharString>
        <CharString name="idieresis">
          1408 110 callsubr
          hstemhm
          -17 215.97999572753906 12 166 12.010009765625 216.99000549316406 hintmask 00000000
          hintmask 11010000
          -17 1513.979995727539 rmoveto
          65 callsubr
          55.99000549316406 61 -35 callgsubr
          46 74 62 -29 43 -69 -59 -58.97999572753906 -49 -70 vhcurveto
          405.99000549316406 hmoveto
          65 callsubr
          56 157 callgsubr
          -29.979995727539062 43 222 callgsubr
          75 callgsubr
          -58 -49 -70 vhcurveto
          hintmask 10100000
          -178.02000427246094 -374.99000549316406 -87 callgsubr
          endchar
        </CharString>
        <CharString name="igrave">
          0 1780.979995727539 67 callsubr
          314 1314.979995727539 rmoveto
          85 76 callgsubr
          -117 133 -53 callsubr
          134 -100.99000549316406 -66 callsubr
          rlinecurve
          59 callsubr
          -103 79.99000549316406 146 callgsubr
          124 callsubr
          -175.97999572753906 -87 callgsubr
          endchar
        </CharString>
        <CharString name="ij">
          -151 -507 118 1776.990005493164 19 callsubr
          403 230 -211 256 callsubr
          hintmask 11101000
          -79 callsubr
          601.9900054931641 hmoveto
          -83 callsubr
          49 -42 58 16 callsubr
          vhcurveto
          hintmask 11010100
          -569 -362.99000549316406 -17 callgsubr
        </CharString>
        <CharString name="ij_acutecomb">
          -151 -507 118 72 callgsubr
          422 166 vstem
          132 callsubr
          -56 callsubr
          601.9900054931641 hmoveto
          86.02000427246094 -88 callsubr
          68 101 rlinecurve
          -120 103 124 callsubr
          66 callsubr
          -119 39 callgsubr
          -563 -244 -17 callgsubr
        </CharString>
        <CharString name="imacron">
          1451.990005493164 124 67 callsubr
          23 1576 rmoveto
          204 callgsubr
          -542.9900054931641 vlineto
          187.99000549316406 -437 -87 callgsubr
          endchar
        </CharString>
        <CharString name="infinity">
          541 228.99000549316406 116 533.989990234375 125 hstem
          162 callsubr
          150.99000549316406 1334.009994506836 150.99000549316406 vstem
          1335.990005493164 1003.9900054931641 rmoveto
          -178 -2 -143 -136.99000549316406 -88 -134 rrcurveto
          139 -93 -42 callgsubr
          134 -203 hhcurveto
          -228 -181 -139 -264 -196 147 -179 260 4 hvcurveto
          181 2 -43 callsubr
          129.99000549316406 89 134 rrcurveto
          -135 91 114.00999450683594 -132 196 hhcurveto
          262 153 156 248.02000427246094 182.99000549316406 -122 192 -281 -3.9900054931640625 hvcurveto
          -809 -658 rmoveto
          -196 -77 132 131 140 89 129.99000549316406 184 150 100 -155 -42 callgsubr
          73.99000549316406 hvcurveto
          -150.02000427246094 -93 -108 -109 -123 hhcurveto
          822.9900054931641 -1 rmoveto
          -157 -115 154 121 -77 hvcurveto
          -50 callgsubr
          75.02000427246094 105.99000549316406 134 136 hhcurveto
          189.99000549316406 80.02000427246094 -133 -127 -128 222 callgsubr
          -146 -169 hvcurveto
          endchar
        </CharString>
        <CharString name="integral">
          -259 -518 125 1951.990005493164 -50 callgsubr
          hstem
          194 callgsubr
          -11 callgsubr
          272.989990234375 152 vstem
          100.99000549316406 -389 rmoveto
          226 callgsubr
          55 134.97999572753906 -50 130 hhcurveto
          290 116 207 280 hvcurveto
          424 -425 414 400 vvcurveto
          211 82 141 186 116 72 -52.02000427246094 -40.97999572753906 24 vhcurveto
          87 86 rlineto
          99 -59 -121 90 callgsubr
          -116 hhcurveto
          -282.00999450683594 -142.99000549316406 -198 -278 hvcurveto
          -421.00999450683594 426.99000549316406 -418 -401 vvcurveto
          226 callsubr
          -111.97999572753906 175 callgsubr
          -162 -133.02000427246094 -76.99000549316406 72.99000549316406 33 -80 callgsubr
          vhcurveto
          -64 122 callgsubr
          rlineto
          endchar
        </CharString>
        <CharString name="iogonek">
          -512 113 1786.990005493164 141 callsubr
          150 callgsubr
          164 -3 230 -201.010009765625 256 callsubr
          hintmask 11010000
          288.99000549316406 149 callgsubr
          rmoveto
          16 callsubr
          -71.99000549316406 49 -42 58 hvcurveto
          hintmask 11101000
          51 -1786.979995727539 rmoveto
          175 callgsubr
          222 callgsubr
          40 92 -72 callgsubr
          hvcurveto
          -1 117 89 -47 callgsubr
          85 54 rrcurveto
          19 hlineto
          hintmask 11001000
          1139 -166.02000427246094 -1139 18 vlineto
          hintmask 11101000
          -95 188 callgsubr
          1 179 callsubr
          -77 140 hhcurveto
          196 callgsubr
          89.00999450683594 21 41 53.99000549316406 218 callsubr
          -58 -14 -51 -69 callgsubr
          rrcurveto
          endchar
        </CharString>
</ttFont>
